%TF.GenerationSoftware,KiCad,Pcbnew,(7.0.0)*%
%TF.CreationDate,2023-02-23T15:33:30+08:00*%
%TF.ProjectId,CK,434b2e6b-6963-4616-945f-706362585858,rev?*%
%TF.SameCoordinates,Original*%
%TF.FileFunction,Copper,L2,Bot*%
%TF.FilePolarity,Positive*%
%FSLAX46Y46*%
G04 Gerber Fmt 4.6, Leading zero omitted, Abs format (unit mm)*
G04 Created by KiCad (PCBNEW (7.0.0)) date 2023-02-23 15:33:30*
%MOMM*%
%LPD*%
G01*
G04 APERTURE LIST*
%TA.AperFunction,ComponentPad*%
%ADD10R,1.700000X1.700000*%
%TD*%
%TA.AperFunction,ComponentPad*%
%ADD11O,1.700000X1.700000*%
%TD*%
%TA.AperFunction,ComponentPad*%
%ADD12O,3.500000X1.900000*%
%TD*%
%TA.AperFunction,ViaPad*%
%ADD13C,0.800000*%
%TD*%
%TA.AperFunction,Conductor*%
%ADD14C,0.250000*%
%TD*%
%TA.AperFunction,Conductor*%
%ADD15C,0.500000*%
%TD*%
%TA.AperFunction,Conductor*%
%ADD16C,0.300000*%
%TD*%
G04 APERTURE END LIST*
D10*
%TO.P,J2,1,Pin_1*%
%TO.N,/+3.3V*%
X112319999Y-98249999D03*
D11*
%TO.P,J2,2,Pin_2*%
%TO.N,/GND*%
X109779999Y-98249999D03*
%TO.P,J2,3,Pin_3*%
%TO.N,/DBG_TX*%
X107239999Y-98249999D03*
%TO.P,J2,4,Pin_4*%
%TO.N,/SWDCLK*%
X104699999Y-98249999D03*
%TO.P,J2,5,Pin_5*%
%TO.N,/SWDIO*%
X102159999Y-98249999D03*
%TD*%
D12*
%TO.P,J1,5,Shield*%
%TO.N,/GND*%
X95399999Y-99599999D03*
X95399999Y-110999999D03*
%TD*%
D13*
%TO.N,/GND*%
X99363000Y-111450000D03*
X106800000Y-112500000D03*
X103000000Y-100950000D03*
X106425000Y-104675000D03*
X104650000Y-104750000D03*
X106500000Y-102750000D03*
X104650000Y-102800000D03*
X109850000Y-105650000D03*
X108500000Y-108700000D03*
X107950000Y-106600000D03*
X103900000Y-111760000D03*
X97300000Y-113300000D03*
%TO.N,/+3.3V*%
X110500000Y-111500000D03*
X110500000Y-107700000D03*
X110750000Y-100050000D03*
X106750000Y-100050000D03*
%TO.N,/GND*%
X99800000Y-100250000D03*
X98100000Y-99900000D03*
X101400000Y-107550000D03*
%TO.N,/+5V_USB*%
X100200000Y-112800000D03*
X100212500Y-110037500D03*
%TO.N,/USB_DM*%
X100400000Y-106150000D03*
X100400000Y-103600000D03*
%TO.N,/SWDCLK*%
X101900000Y-105450000D03*
%TO.N,/SWDIO*%
X101386601Y-106310076D03*
%TD*%
D14*
%TO.N,/SWDIO*%
X101175000Y-99235000D02*
X101175000Y-106098475D01*
X102160000Y-98250000D02*
X101175000Y-99235000D01*
X101175000Y-106098475D02*
X101386601Y-106310076D01*
D15*
%TO.N,/+3.3V*%
X110500000Y-111500000D02*
X110500000Y-107700000D01*
D16*
X106750000Y-100050000D02*
X110750000Y-100050000D01*
D15*
%TO.N,/+5V_USB*%
X100212500Y-112787500D02*
X100200000Y-112800000D01*
X100212500Y-110037500D02*
X100212500Y-112787500D01*
D14*
%TO.N,/USB_DM*%
X100400000Y-103600000D02*
X100400000Y-106150000D01*
%TO.N,/SWDCLK*%
X101900000Y-105450000D02*
X101900000Y-100800000D01*
X101900000Y-100800000D02*
X104700000Y-98250000D01*
%TD*%
%TA.AperFunction,Conductor*%
%TO.N,/GND*%
G36*
X118304042Y-96300764D02*
G01*
X118383586Y-96305978D01*
X118383767Y-96305991D01*
X118561587Y-96318709D01*
X118576904Y-96320772D01*
X118688378Y-96342945D01*
X118690437Y-96343374D01*
X118830240Y-96373786D01*
X118843703Y-96377522D01*
X118957725Y-96416228D01*
X118961074Y-96417420D01*
X119088808Y-96465062D01*
X119100300Y-96470024D01*
X119210687Y-96524461D01*
X119215187Y-96526798D01*
X119332478Y-96590844D01*
X119341942Y-96596574D01*
X119445269Y-96665615D01*
X119450688Y-96669450D01*
X119556727Y-96748830D01*
X119564145Y-96754844D01*
X119657976Y-96837131D01*
X119663898Y-96842678D01*
X119757320Y-96936100D01*
X119762867Y-96942022D01*
X119845150Y-97035848D01*
X119851173Y-97043278D01*
X119877970Y-97079073D01*
X119930548Y-97149310D01*
X119934383Y-97154729D01*
X120003424Y-97258056D01*
X120009154Y-97267520D01*
X120073183Y-97384779D01*
X120075564Y-97389363D01*
X120129969Y-97499687D01*
X120134938Y-97511196D01*
X120182556Y-97638863D01*
X120183793Y-97642338D01*
X120222470Y-97756276D01*
X120226217Y-97769777D01*
X120256613Y-97909508D01*
X120257064Y-97911675D01*
X120279224Y-98023080D01*
X120281291Y-98038425D01*
X120293995Y-98216046D01*
X120294045Y-98216781D01*
X120299234Y-98295942D01*
X120299500Y-98304053D01*
X120299500Y-112295947D01*
X120299234Y-112304058D01*
X120294045Y-112383217D01*
X120293995Y-112383952D01*
X120281291Y-112561573D01*
X120279224Y-112576918D01*
X120257064Y-112688323D01*
X120256613Y-112690490D01*
X120226217Y-112830221D01*
X120222470Y-112843722D01*
X120183793Y-112957660D01*
X120182556Y-112961135D01*
X120134938Y-113088802D01*
X120129969Y-113100311D01*
X120075564Y-113210635D01*
X120073183Y-113215219D01*
X120009154Y-113332478D01*
X120003424Y-113341942D01*
X119934383Y-113445269D01*
X119930548Y-113450688D01*
X119851181Y-113556711D01*
X119845142Y-113564160D01*
X119762867Y-113657976D01*
X119757320Y-113663898D01*
X119663898Y-113757320D01*
X119657976Y-113762867D01*
X119564160Y-113845142D01*
X119556711Y-113851181D01*
X119450688Y-113930548D01*
X119445269Y-113934383D01*
X119341942Y-114003424D01*
X119332478Y-114009154D01*
X119215219Y-114073183D01*
X119210635Y-114075564D01*
X119100311Y-114129969D01*
X119088802Y-114134938D01*
X118961135Y-114182556D01*
X118957660Y-114183793D01*
X118843722Y-114222470D01*
X118830221Y-114226217D01*
X118690490Y-114256613D01*
X118688323Y-114257064D01*
X118576918Y-114279224D01*
X118561573Y-114281291D01*
X118383952Y-114293995D01*
X118383217Y-114294045D01*
X118304058Y-114299234D01*
X118295947Y-114299500D01*
X93305416Y-114299500D01*
X93294606Y-114299028D01*
X93292001Y-114298800D01*
X93255223Y-114295581D01*
X93253882Y-114295456D01*
X93128238Y-114283082D01*
X93108298Y-114279454D01*
X93043616Y-114262123D01*
X93039713Y-114261008D01*
X92948436Y-114233319D01*
X92932027Y-114227041D01*
X92866163Y-114196328D01*
X92860114Y-114193304D01*
X92780952Y-114150990D01*
X92768283Y-114143207D01*
X92707109Y-114100373D01*
X92699568Y-114094652D01*
X92631543Y-114038826D01*
X92622526Y-114030653D01*
X92569345Y-113977472D01*
X92561172Y-113968455D01*
X92505346Y-113900430D01*
X92499625Y-113892889D01*
X92456791Y-113831715D01*
X92449008Y-113819046D01*
X92416014Y-113757320D01*
X92406685Y-113739867D01*
X92403686Y-113733867D01*
X92372952Y-113667959D01*
X92366682Y-113651570D01*
X92338966Y-113560203D01*
X92337899Y-113556467D01*
X92320541Y-113491685D01*
X92316918Y-113471776D01*
X92304526Y-113345961D01*
X92304426Y-113344880D01*
X92300972Y-113305392D01*
X92300500Y-113294587D01*
X92300500Y-112800000D01*
X99294540Y-112800000D01*
X99295219Y-112806460D01*
X99313646Y-112981795D01*
X99313647Y-112981803D01*
X99314326Y-112988256D01*
X99316331Y-112994428D01*
X99316333Y-112994435D01*
X99350735Y-113100311D01*
X99372821Y-113168284D01*
X99467467Y-113332216D01*
X99594129Y-113472888D01*
X99599387Y-113476708D01*
X99599388Y-113476709D01*
X99655144Y-113517218D01*
X99747270Y-113584151D01*
X99920197Y-113661144D01*
X100105354Y-113700500D01*
X100288143Y-113700500D01*
X100294646Y-113700500D01*
X100479803Y-113661144D01*
X100652730Y-113584151D01*
X100805871Y-113472888D01*
X100932533Y-113332216D01*
X101027179Y-113168284D01*
X101085674Y-112988256D01*
X101105460Y-112800000D01*
X101085674Y-112611744D01*
X101027179Y-112431716D01*
X100979612Y-112349328D01*
X100963000Y-112287329D01*
X100963000Y-111500000D01*
X109594540Y-111500000D01*
X109595219Y-111506460D01*
X109613646Y-111681795D01*
X109613647Y-111681803D01*
X109614326Y-111688256D01*
X109616331Y-111694428D01*
X109616333Y-111694435D01*
X109647801Y-111791281D01*
X109672821Y-111868284D01*
X109676068Y-111873908D01*
X109676069Y-111873910D01*
X109742455Y-111988895D01*
X109767467Y-112032216D01*
X109894129Y-112172888D01*
X110047270Y-112284151D01*
X110220197Y-112361144D01*
X110405354Y-112400500D01*
X110588143Y-112400500D01*
X110594646Y-112400500D01*
X110779803Y-112361144D01*
X110952730Y-112284151D01*
X111105871Y-112172888D01*
X111232533Y-112032216D01*
X111327179Y-111868284D01*
X111385674Y-111688256D01*
X111405460Y-111500000D01*
X111385674Y-111311744D01*
X111327179Y-111131716D01*
X111267112Y-111027678D01*
X111250500Y-110965679D01*
X111250500Y-108234321D01*
X111267113Y-108172321D01*
X111327179Y-108068284D01*
X111385674Y-107888256D01*
X111405460Y-107700000D01*
X111385674Y-107511744D01*
X111327179Y-107331716D01*
X111232533Y-107167784D01*
X111125711Y-107049147D01*
X111110220Y-107031942D01*
X111110219Y-107031941D01*
X111105871Y-107027112D01*
X111100613Y-107023292D01*
X111100611Y-107023290D01*
X110957988Y-106919669D01*
X110957987Y-106919668D01*
X110952730Y-106915849D01*
X110946792Y-106913205D01*
X110785745Y-106841501D01*
X110785740Y-106841499D01*
X110779803Y-106838856D01*
X110773444Y-106837504D01*
X110773440Y-106837503D01*
X110601008Y-106800852D01*
X110601005Y-106800851D01*
X110594646Y-106799500D01*
X110405354Y-106799500D01*
X110398995Y-106800851D01*
X110398991Y-106800852D01*
X110226559Y-106837503D01*
X110226552Y-106837505D01*
X110220197Y-106838856D01*
X110214262Y-106841498D01*
X110214254Y-106841501D01*
X110053207Y-106913205D01*
X110053202Y-106913207D01*
X110047270Y-106915849D01*
X110042016Y-106919665D01*
X110042011Y-106919669D01*
X109899388Y-107023290D01*
X109899381Y-107023295D01*
X109894129Y-107027112D01*
X109889784Y-107031937D01*
X109889779Y-107031942D01*
X109771813Y-107162956D01*
X109771808Y-107162962D01*
X109767467Y-107167784D01*
X109764222Y-107173404D01*
X109764218Y-107173410D01*
X109676069Y-107326089D01*
X109676066Y-107326094D01*
X109672821Y-107331716D01*
X109670815Y-107337888D01*
X109670813Y-107337894D01*
X109616333Y-107505564D01*
X109616331Y-107505573D01*
X109614326Y-107511744D01*
X109613648Y-107518194D01*
X109613646Y-107518204D01*
X109595962Y-107686464D01*
X109594540Y-107700000D01*
X109595219Y-107706460D01*
X109613646Y-107881795D01*
X109613647Y-107881803D01*
X109614326Y-107888256D01*
X109616331Y-107894428D01*
X109616333Y-107894435D01*
X109636146Y-107955412D01*
X109672821Y-108068284D01*
X109676068Y-108073908D01*
X109676069Y-108073910D01*
X109732887Y-108172321D01*
X109749500Y-108234321D01*
X109749500Y-110965679D01*
X109732887Y-111027679D01*
X109676069Y-111126089D01*
X109676066Y-111126094D01*
X109672821Y-111131716D01*
X109670815Y-111137888D01*
X109670813Y-111137894D01*
X109616333Y-111305564D01*
X109616331Y-111305573D01*
X109614326Y-111311744D01*
X109613648Y-111318194D01*
X109613646Y-111318204D01*
X109595962Y-111486464D01*
X109594540Y-111500000D01*
X100963000Y-111500000D01*
X100963000Y-110571821D01*
X100979613Y-110509821D01*
X101031244Y-110420393D01*
X101039679Y-110405784D01*
X101098174Y-110225756D01*
X101117960Y-110037500D01*
X101098174Y-109849244D01*
X101039679Y-109669216D01*
X100945033Y-109505284D01*
X100818371Y-109364612D01*
X100813113Y-109360792D01*
X100813111Y-109360790D01*
X100670488Y-109257169D01*
X100670487Y-109257168D01*
X100665230Y-109253349D01*
X100659292Y-109250705D01*
X100498245Y-109179001D01*
X100498240Y-109178999D01*
X100492303Y-109176356D01*
X100485944Y-109175004D01*
X100485940Y-109175003D01*
X100313508Y-109138352D01*
X100313505Y-109138351D01*
X100307146Y-109137000D01*
X100117854Y-109137000D01*
X100111495Y-109138351D01*
X100111491Y-109138352D01*
X99939059Y-109175003D01*
X99939052Y-109175005D01*
X99932697Y-109176356D01*
X99926762Y-109178998D01*
X99926754Y-109179001D01*
X99765707Y-109250705D01*
X99765702Y-109250707D01*
X99759770Y-109253349D01*
X99754516Y-109257165D01*
X99754511Y-109257169D01*
X99611888Y-109360790D01*
X99611881Y-109360795D01*
X99606629Y-109364612D01*
X99602284Y-109369437D01*
X99602279Y-109369442D01*
X99484313Y-109500456D01*
X99484308Y-109500462D01*
X99479967Y-109505284D01*
X99476722Y-109510904D01*
X99476718Y-109510910D01*
X99388569Y-109663589D01*
X99388566Y-109663594D01*
X99385321Y-109669216D01*
X99383315Y-109675388D01*
X99383313Y-109675394D01*
X99328833Y-109843064D01*
X99328831Y-109843073D01*
X99326826Y-109849244D01*
X99326148Y-109855694D01*
X99326146Y-109855704D01*
X99309814Y-110011104D01*
X99307040Y-110037500D01*
X99307719Y-110043960D01*
X99326146Y-110219295D01*
X99326147Y-110219303D01*
X99326826Y-110225756D01*
X99328831Y-110231928D01*
X99328833Y-110231935D01*
X99383313Y-110399605D01*
X99385321Y-110405784D01*
X99388568Y-110411408D01*
X99388569Y-110411410D01*
X99445387Y-110509821D01*
X99462000Y-110571821D01*
X99462000Y-112244028D01*
X99445387Y-112306028D01*
X99376069Y-112426089D01*
X99376066Y-112426094D01*
X99372821Y-112431716D01*
X99370815Y-112437888D01*
X99370813Y-112437894D01*
X99316333Y-112605564D01*
X99316331Y-112605573D01*
X99314326Y-112611744D01*
X99313648Y-112618194D01*
X99313646Y-112618204D01*
X99295962Y-112786464D01*
X99294540Y-112800000D01*
X92300500Y-112800000D01*
X92300500Y-111263320D01*
X93173891Y-111263320D01*
X93188708Y-111352116D01*
X93191219Y-111362027D01*
X93265913Y-111579606D01*
X93270016Y-111588960D01*
X93379507Y-111791281D01*
X93385101Y-111799843D01*
X93526394Y-111981375D01*
X93533315Y-111988895D01*
X93702570Y-112144705D01*
X93710627Y-112150976D01*
X93903222Y-112276804D01*
X93912205Y-112281666D01*
X94122875Y-112374074D01*
X94132542Y-112377393D01*
X94355544Y-112433865D01*
X94365639Y-112435549D01*
X94537466Y-112449787D01*
X94542603Y-112450000D01*
X95133674Y-112450000D01*
X95146549Y-112446549D01*
X95150000Y-112433674D01*
X95650000Y-112433674D01*
X95653450Y-112446549D01*
X95666326Y-112450000D01*
X96257397Y-112450000D01*
X96262533Y-112449787D01*
X96434360Y-112435549D01*
X96444455Y-112433865D01*
X96667457Y-112377393D01*
X96677124Y-112374074D01*
X96887794Y-112281666D01*
X96896777Y-112276804D01*
X97089372Y-112150976D01*
X97097429Y-112144705D01*
X97266684Y-111988895D01*
X97273605Y-111981375D01*
X97414898Y-111799843D01*
X97420492Y-111791281D01*
X97529983Y-111588960D01*
X97534086Y-111579606D01*
X97608780Y-111362027D01*
X97611291Y-111352116D01*
X97626108Y-111263320D01*
X97625541Y-111252363D01*
X97614824Y-111250000D01*
X95666326Y-111250000D01*
X95653450Y-111253450D01*
X95650000Y-111266326D01*
X95650000Y-112433674D01*
X95150000Y-112433674D01*
X95150000Y-111266326D01*
X95146549Y-111253450D01*
X95133674Y-111250000D01*
X93185176Y-111250000D01*
X93174458Y-111252363D01*
X93173891Y-111263320D01*
X92300500Y-111263320D01*
X92300500Y-110736679D01*
X93173891Y-110736679D01*
X93174458Y-110747636D01*
X93185176Y-110750000D01*
X95133674Y-110750000D01*
X95146549Y-110746549D01*
X95150000Y-110733674D01*
X95650000Y-110733674D01*
X95653450Y-110746549D01*
X95666326Y-110750000D01*
X97614824Y-110750000D01*
X97625541Y-110747636D01*
X97626108Y-110736679D01*
X97611291Y-110647883D01*
X97608780Y-110637972D01*
X97534086Y-110420393D01*
X97529983Y-110411039D01*
X97420492Y-110208718D01*
X97414898Y-110200156D01*
X97273605Y-110018624D01*
X97266684Y-110011104D01*
X97097429Y-109855294D01*
X97089372Y-109849023D01*
X96896777Y-109723195D01*
X96887794Y-109718333D01*
X96677124Y-109625925D01*
X96667457Y-109622606D01*
X96444455Y-109566134D01*
X96434360Y-109564450D01*
X96262533Y-109550212D01*
X96257397Y-109550000D01*
X95666326Y-109550000D01*
X95653450Y-109553450D01*
X95650000Y-109566326D01*
X95650000Y-110733674D01*
X95150000Y-110733674D01*
X95150000Y-109566326D01*
X95146549Y-109553450D01*
X95133674Y-109550000D01*
X94542603Y-109550000D01*
X94537466Y-109550212D01*
X94365639Y-109564450D01*
X94355544Y-109566134D01*
X94132542Y-109622606D01*
X94122875Y-109625925D01*
X93912205Y-109718333D01*
X93903222Y-109723195D01*
X93710627Y-109849023D01*
X93702570Y-109855294D01*
X93533315Y-110011104D01*
X93526394Y-110018624D01*
X93385101Y-110200156D01*
X93379507Y-110208718D01*
X93270016Y-110411039D01*
X93265913Y-110420393D01*
X93191219Y-110637972D01*
X93188708Y-110647883D01*
X93173891Y-110736679D01*
X92300500Y-110736679D01*
X92300500Y-107600000D01*
X94594435Y-107600000D01*
X94614632Y-107779255D01*
X94616928Y-107785819D01*
X94616930Y-107785824D01*
X94650512Y-107881795D01*
X94674211Y-107949522D01*
X94770184Y-108102262D01*
X94897738Y-108229816D01*
X95050478Y-108325789D01*
X95220745Y-108385368D01*
X95355046Y-108400500D01*
X95441470Y-108400500D01*
X95444954Y-108400500D01*
X95579255Y-108385368D01*
X95749522Y-108325789D01*
X95902262Y-108229816D01*
X96029816Y-108102262D01*
X96125789Y-107949522D01*
X96185368Y-107779255D01*
X96205565Y-107600000D01*
X96185368Y-107420745D01*
X96125789Y-107250478D01*
X96029816Y-107097738D01*
X95902262Y-106970184D01*
X95749522Y-106874211D01*
X95742959Y-106871914D01*
X95742956Y-106871913D01*
X95585825Y-106816931D01*
X95579255Y-106814632D01*
X95572333Y-106813852D01*
X95448418Y-106799890D01*
X95448412Y-106799889D01*
X95444954Y-106799500D01*
X95355046Y-106799500D01*
X95351588Y-106799889D01*
X95351581Y-106799890D01*
X95227666Y-106813852D01*
X95227664Y-106813852D01*
X95220745Y-106814632D01*
X95214176Y-106816930D01*
X95214174Y-106816931D01*
X95057043Y-106871913D01*
X95057036Y-106871915D01*
X95050478Y-106874211D01*
X95044590Y-106877910D01*
X95044587Y-106877912D01*
X94903638Y-106966476D01*
X94903633Y-106966479D01*
X94897738Y-106970184D01*
X94892813Y-106975108D01*
X94892809Y-106975112D01*
X94775112Y-107092809D01*
X94775108Y-107092813D01*
X94770184Y-107097738D01*
X94766479Y-107103633D01*
X94766476Y-107103638D01*
X94677912Y-107244587D01*
X94677910Y-107244590D01*
X94674211Y-107250478D01*
X94671915Y-107257036D01*
X94671913Y-107257043D01*
X94616930Y-107414175D01*
X94616928Y-107414182D01*
X94614632Y-107420745D01*
X94594435Y-107600000D01*
X92300500Y-107600000D01*
X92300500Y-106150000D01*
X99494540Y-106150000D01*
X99495219Y-106156460D01*
X99513646Y-106331795D01*
X99513647Y-106331803D01*
X99514326Y-106338256D01*
X99516331Y-106344428D01*
X99516333Y-106344435D01*
X99566338Y-106498332D01*
X99572821Y-106518284D01*
X99667467Y-106682216D01*
X99671811Y-106687041D01*
X99671813Y-106687043D01*
X99785993Y-106813852D01*
X99794129Y-106822888D01*
X99947270Y-106934151D01*
X100120197Y-107011144D01*
X100305354Y-107050500D01*
X100488143Y-107050500D01*
X100494646Y-107050500D01*
X100679803Y-107011144D01*
X100701027Y-107001693D01*
X100764424Y-106991652D01*
X100824349Y-107014655D01*
X100933871Y-107094227D01*
X101106798Y-107171220D01*
X101291955Y-107210576D01*
X101474744Y-107210576D01*
X101481247Y-107210576D01*
X101666404Y-107171220D01*
X101839331Y-107094227D01*
X101992472Y-106982964D01*
X102119134Y-106842292D01*
X102213780Y-106678360D01*
X102272275Y-106498332D01*
X102290121Y-106328532D01*
X102309447Y-106273960D01*
X102350221Y-106235267D01*
X102352730Y-106234151D01*
X102505871Y-106122888D01*
X102632533Y-105982216D01*
X102727179Y-105818284D01*
X102785674Y-105638256D01*
X102805460Y-105450000D01*
X102785674Y-105261744D01*
X102727179Y-105081716D01*
X102632533Y-104917784D01*
X102557349Y-104834284D01*
X102533736Y-104795751D01*
X102525500Y-104751313D01*
X102525500Y-101131158D01*
X102536078Y-101081044D01*
X102566007Y-101039480D01*
X102938220Y-100700500D01*
X104181460Y-99568263D01*
X104235661Y-99539452D01*
X104297039Y-99540167D01*
X104464592Y-99585063D01*
X104700000Y-99605659D01*
X104935408Y-99585063D01*
X105163663Y-99523903D01*
X105377830Y-99424035D01*
X105571401Y-99288495D01*
X105738495Y-99121401D01*
X105868426Y-98935839D01*
X105912742Y-98896976D01*
X105969999Y-98882965D01*
X106027256Y-98896976D01*
X106071574Y-98935841D01*
X106198399Y-99116966D01*
X106198402Y-99116970D01*
X106201505Y-99121401D01*
X106205336Y-99125232D01*
X106222805Y-99142701D01*
X106251460Y-99187463D01*
X106258742Y-99240111D01*
X106243314Y-99290971D01*
X106208010Y-99330699D01*
X106144129Y-99377112D01*
X106139784Y-99381937D01*
X106139779Y-99381942D01*
X106021813Y-99512956D01*
X106021808Y-99512962D01*
X106017467Y-99517784D01*
X106014222Y-99523404D01*
X106014218Y-99523410D01*
X105926069Y-99676089D01*
X105926066Y-99676094D01*
X105922821Y-99681716D01*
X105920815Y-99687888D01*
X105920813Y-99687894D01*
X105866333Y-99855564D01*
X105866331Y-99855573D01*
X105864326Y-99861744D01*
X105863648Y-99868194D01*
X105863646Y-99868204D01*
X105853786Y-99962027D01*
X105844540Y-100050000D01*
X105845219Y-100056460D01*
X105863646Y-100231795D01*
X105863647Y-100231803D01*
X105864326Y-100238256D01*
X105866331Y-100244428D01*
X105866333Y-100244435D01*
X105914047Y-100391281D01*
X105922821Y-100418284D01*
X106017467Y-100582216D01*
X106144129Y-100722888D01*
X106297270Y-100834151D01*
X106470197Y-100911144D01*
X106655354Y-100950500D01*
X106838143Y-100950500D01*
X106844646Y-100950500D01*
X107029803Y-100911144D01*
X107202730Y-100834151D01*
X107354089Y-100724182D01*
X107388657Y-100706569D01*
X107426975Y-100700500D01*
X110073025Y-100700500D01*
X110111343Y-100706569D01*
X110145910Y-100724182D01*
X110297270Y-100834151D01*
X110470197Y-100911144D01*
X110655354Y-100950500D01*
X110838143Y-100950500D01*
X110844646Y-100950500D01*
X111029803Y-100911144D01*
X111202730Y-100834151D01*
X111355871Y-100722888D01*
X111482533Y-100582216D01*
X111577179Y-100418284D01*
X111635674Y-100238256D01*
X111655460Y-100050000D01*
X111635674Y-99861744D01*
X111603529Y-99762814D01*
X111598988Y-99705102D01*
X111621143Y-99651614D01*
X111665166Y-99614014D01*
X111721461Y-99600499D01*
X113214561Y-99600499D01*
X113217872Y-99600499D01*
X113277483Y-99594091D01*
X113412331Y-99543796D01*
X113527546Y-99457546D01*
X113613796Y-99342331D01*
X113664091Y-99207483D01*
X113670500Y-99147873D01*
X113670499Y-97352128D01*
X113664091Y-97292517D01*
X113613796Y-97157669D01*
X113527546Y-97042454D01*
X113437030Y-96974694D01*
X113419431Y-96961519D01*
X113419430Y-96961518D01*
X113412331Y-96956204D01*
X113305442Y-96916337D01*
X113284752Y-96908620D01*
X113284750Y-96908619D01*
X113277483Y-96905909D01*
X113269770Y-96905079D01*
X113269767Y-96905079D01*
X113221180Y-96899855D01*
X113221169Y-96899854D01*
X113217873Y-96899500D01*
X113214550Y-96899500D01*
X111425439Y-96899500D01*
X111425420Y-96899500D01*
X111422128Y-96899501D01*
X111418850Y-96899853D01*
X111418838Y-96899854D01*
X111370231Y-96905079D01*
X111370225Y-96905080D01*
X111362517Y-96905909D01*
X111355252Y-96908618D01*
X111355246Y-96908620D01*
X111235980Y-96953104D01*
X111235978Y-96953104D01*
X111227669Y-96956204D01*
X111220572Y-96961516D01*
X111220568Y-96961519D01*
X111119550Y-97037141D01*
X111119546Y-97037144D01*
X111112454Y-97042454D01*
X111107144Y-97049546D01*
X111107141Y-97049550D01*
X111031519Y-97150568D01*
X111031516Y-97150572D01*
X111026204Y-97157669D01*
X111023104Y-97165978D01*
X111023105Y-97165978D01*
X110976997Y-97289599D01*
X110942018Y-97339978D01*
X110887173Y-97367431D01*
X110825880Y-97365242D01*
X110773134Y-97333946D01*
X110654909Y-97215721D01*
X110646643Y-97208784D01*
X110462008Y-97079501D01*
X110452676Y-97074113D01*
X110248397Y-96978856D01*
X110238263Y-96975168D01*
X110043780Y-96923056D01*
X110032551Y-96922688D01*
X110030000Y-96933631D01*
X110030000Y-98376000D01*
X110013387Y-98438000D01*
X109968000Y-98483387D01*
X109906000Y-98500000D01*
X109654000Y-98500000D01*
X109592000Y-98483387D01*
X109546613Y-98438000D01*
X109530000Y-98376000D01*
X109530000Y-96933631D01*
X109527448Y-96922688D01*
X109516219Y-96923056D01*
X109321736Y-96975168D01*
X109311602Y-96978856D01*
X109107332Y-97074110D01*
X109097982Y-97079508D01*
X108913357Y-97208784D01*
X108905092Y-97215719D01*
X108745719Y-97375092D01*
X108738788Y-97383352D01*
X108611880Y-97564596D01*
X108567562Y-97603461D01*
X108510305Y-97617472D01*
X108453048Y-97603461D01*
X108408730Y-97564595D01*
X108281600Y-97383034D01*
X108278495Y-97378599D01*
X108111401Y-97211505D01*
X108106970Y-97208402D01*
X108106966Y-97208399D01*
X107922259Y-97079066D01*
X107922257Y-97079064D01*
X107917830Y-97075965D01*
X107912933Y-97073681D01*
X107912927Y-97073678D01*
X107708572Y-96978386D01*
X107708570Y-96978385D01*
X107703663Y-96976097D01*
X107698438Y-96974697D01*
X107698430Y-96974694D01*
X107480634Y-96916337D01*
X107480630Y-96916336D01*
X107475408Y-96914937D01*
X107470020Y-96914465D01*
X107470017Y-96914465D01*
X107245395Y-96894813D01*
X107240000Y-96894341D01*
X107234605Y-96894813D01*
X107009982Y-96914465D01*
X107009977Y-96914465D01*
X107004592Y-96914937D01*
X106999371Y-96916335D01*
X106999365Y-96916337D01*
X106781569Y-96974694D01*
X106781557Y-96974698D01*
X106776337Y-96976097D01*
X106771432Y-96978383D01*
X106771427Y-96978386D01*
X106567081Y-97073675D01*
X106567077Y-97073677D01*
X106562171Y-97075965D01*
X106557738Y-97079068D01*
X106557731Y-97079073D01*
X106373034Y-97208399D01*
X106373029Y-97208402D01*
X106368599Y-97211505D01*
X106364775Y-97215328D01*
X106364769Y-97215334D01*
X106205334Y-97374769D01*
X106205328Y-97374775D01*
X106201505Y-97378599D01*
X106198402Y-97383029D01*
X106198399Y-97383034D01*
X106071575Y-97564159D01*
X106027257Y-97603025D01*
X105970000Y-97617036D01*
X105912743Y-97603025D01*
X105868425Y-97564159D01*
X105741600Y-97383034D01*
X105738495Y-97378599D01*
X105571401Y-97211505D01*
X105566970Y-97208402D01*
X105566966Y-97208399D01*
X105382259Y-97079066D01*
X105382257Y-97079064D01*
X105377830Y-97075965D01*
X105372933Y-97073681D01*
X105372927Y-97073678D01*
X105168572Y-96978386D01*
X105168570Y-96978385D01*
X105163663Y-96976097D01*
X105158438Y-96974697D01*
X105158430Y-96974694D01*
X104940634Y-96916337D01*
X104940630Y-96916336D01*
X104935408Y-96914937D01*
X104930020Y-96914465D01*
X104930017Y-96914465D01*
X104705395Y-96894813D01*
X104700000Y-96894341D01*
X104694605Y-96894813D01*
X104469982Y-96914465D01*
X104469977Y-96914465D01*
X104464592Y-96914937D01*
X104459371Y-96916335D01*
X104459365Y-96916337D01*
X104241569Y-96974694D01*
X104241557Y-96974698D01*
X104236337Y-96976097D01*
X104231432Y-96978383D01*
X104231427Y-96978386D01*
X104027081Y-97073675D01*
X104027077Y-97073677D01*
X104022171Y-97075965D01*
X104017738Y-97079068D01*
X104017731Y-97079073D01*
X103833034Y-97208399D01*
X103833029Y-97208402D01*
X103828599Y-97211505D01*
X103824775Y-97215328D01*
X103824769Y-97215334D01*
X103665334Y-97374769D01*
X103665328Y-97374775D01*
X103661505Y-97378599D01*
X103658402Y-97383029D01*
X103658399Y-97383034D01*
X103531575Y-97564159D01*
X103487257Y-97603025D01*
X103430000Y-97617036D01*
X103372743Y-97603025D01*
X103328425Y-97564159D01*
X103201600Y-97383034D01*
X103198495Y-97378599D01*
X103031401Y-97211505D01*
X103026970Y-97208402D01*
X103026966Y-97208399D01*
X102842259Y-97079066D01*
X102842257Y-97079064D01*
X102837830Y-97075965D01*
X102832933Y-97073681D01*
X102832927Y-97073678D01*
X102628572Y-96978386D01*
X102628570Y-96978385D01*
X102623663Y-96976097D01*
X102618438Y-96974697D01*
X102618430Y-96974694D01*
X102400634Y-96916337D01*
X102400630Y-96916336D01*
X102395408Y-96914937D01*
X102390020Y-96914465D01*
X102390017Y-96914465D01*
X102165395Y-96894813D01*
X102160000Y-96894341D01*
X102154605Y-96894813D01*
X101929982Y-96914465D01*
X101929977Y-96914465D01*
X101924592Y-96914937D01*
X101919371Y-96916335D01*
X101919365Y-96916337D01*
X101701569Y-96974694D01*
X101701557Y-96974698D01*
X101696337Y-96976097D01*
X101691432Y-96978383D01*
X101691427Y-96978386D01*
X101487081Y-97073675D01*
X101487077Y-97073677D01*
X101482171Y-97075965D01*
X101477738Y-97079068D01*
X101477731Y-97079073D01*
X101293034Y-97208399D01*
X101293029Y-97208402D01*
X101288599Y-97211505D01*
X101284775Y-97215328D01*
X101284769Y-97215334D01*
X101125334Y-97374769D01*
X101125328Y-97374775D01*
X101121505Y-97378599D01*
X101118402Y-97383029D01*
X101118399Y-97383034D01*
X100989073Y-97567731D01*
X100989068Y-97567738D01*
X100985965Y-97572171D01*
X100983677Y-97577077D01*
X100983675Y-97577081D01*
X100888386Y-97781427D01*
X100888383Y-97781432D01*
X100886097Y-97786337D01*
X100884698Y-97791557D01*
X100884694Y-97791569D01*
X100826337Y-98009365D01*
X100826335Y-98009371D01*
X100824937Y-98014592D01*
X100824465Y-98019977D01*
X100824465Y-98019982D01*
X100812788Y-98153450D01*
X100804341Y-98250000D01*
X100804813Y-98255395D01*
X100821753Y-98449023D01*
X100824937Y-98485408D01*
X100826337Y-98490636D01*
X100826338Y-98490637D01*
X100851855Y-98585873D01*
X100851855Y-98650059D01*
X100819761Y-98705646D01*
X100787696Y-98737711D01*
X100779511Y-98745159D01*
X100773123Y-98749214D01*
X100767788Y-98754894D01*
X100767783Y-98754899D01*
X100727096Y-98798225D01*
X100724392Y-98801016D01*
X100707628Y-98817780D01*
X100707621Y-98817787D01*
X100704880Y-98820529D01*
X100702500Y-98823596D01*
X100702489Y-98823609D01*
X100702400Y-98823725D01*
X100694842Y-98832570D01*
X100670280Y-98858727D01*
X100670273Y-98858736D01*
X100664938Y-98864418D01*
X100661182Y-98871249D01*
X100661179Y-98871254D01*
X100655285Y-98881975D01*
X100644609Y-98898227D01*
X100637109Y-98907896D01*
X100637101Y-98907907D01*
X100632327Y-98914064D01*
X100629234Y-98921208D01*
X100629229Y-98921219D01*
X100614974Y-98954160D01*
X100609838Y-98964643D01*
X100588803Y-99002908D01*
X100586864Y-99010456D01*
X100586863Y-99010461D01*
X100583822Y-99022307D01*
X100577521Y-99040711D01*
X100572658Y-99051948D01*
X100572656Y-99051952D01*
X100569562Y-99059104D01*
X100568342Y-99066803D01*
X100568342Y-99066805D01*
X100562729Y-99102241D01*
X100560361Y-99113676D01*
X100551438Y-99148428D01*
X100551436Y-99148436D01*
X100549500Y-99155981D01*
X100549500Y-99163777D01*
X100549500Y-99176017D01*
X100547974Y-99195402D01*
X100544840Y-99215196D01*
X100545574Y-99222961D01*
X100545574Y-99222964D01*
X100548950Y-99258676D01*
X100549500Y-99270345D01*
X100549500Y-102575500D01*
X100532887Y-102637500D01*
X100487500Y-102682887D01*
X100425500Y-102699500D01*
X100305354Y-102699500D01*
X100298995Y-102700851D01*
X100298991Y-102700852D01*
X100126559Y-102737503D01*
X100126552Y-102737505D01*
X100120197Y-102738856D01*
X100114262Y-102741498D01*
X100114254Y-102741501D01*
X99953207Y-102813205D01*
X99953202Y-102813207D01*
X99947270Y-102815849D01*
X99942016Y-102819665D01*
X99942011Y-102819669D01*
X99799388Y-102923290D01*
X99799381Y-102923295D01*
X99794129Y-102927112D01*
X99789784Y-102931937D01*
X99789779Y-102931942D01*
X99671813Y-103062956D01*
X99671808Y-103062962D01*
X99667467Y-103067784D01*
X99664222Y-103073404D01*
X99664218Y-103073410D01*
X99576069Y-103226089D01*
X99576066Y-103226094D01*
X99572821Y-103231716D01*
X99570815Y-103237888D01*
X99570813Y-103237894D01*
X99516333Y-103405564D01*
X99516331Y-103405573D01*
X99514326Y-103411744D01*
X99513648Y-103418194D01*
X99513646Y-103418204D01*
X99504812Y-103502262D01*
X99494540Y-103600000D01*
X99495219Y-103606460D01*
X99513646Y-103781795D01*
X99513647Y-103781803D01*
X99514326Y-103788256D01*
X99516331Y-103794428D01*
X99516333Y-103794435D01*
X99518177Y-103800109D01*
X99572821Y-103968284D01*
X99667467Y-104132216D01*
X99671811Y-104137041D01*
X99671813Y-104137043D01*
X99742650Y-104215715D01*
X99766264Y-104254249D01*
X99774500Y-104298687D01*
X99774500Y-105451313D01*
X99766264Y-105495751D01*
X99742650Y-105534285D01*
X99671813Y-105612956D01*
X99671808Y-105612962D01*
X99667467Y-105617784D01*
X99664222Y-105623404D01*
X99664218Y-105623410D01*
X99576069Y-105776089D01*
X99576066Y-105776094D01*
X99572821Y-105781716D01*
X99570815Y-105787888D01*
X99570813Y-105787894D01*
X99516333Y-105955564D01*
X99516331Y-105955573D01*
X99514326Y-105961744D01*
X99513648Y-105968194D01*
X99513646Y-105968204D01*
X99496988Y-106126709D01*
X99494540Y-106150000D01*
X92300500Y-106150000D01*
X92300500Y-103000000D01*
X94594435Y-103000000D01*
X94614632Y-103179255D01*
X94616928Y-103185819D01*
X94616930Y-103185824D01*
X94671913Y-103342956D01*
X94674211Y-103349522D01*
X94770184Y-103502262D01*
X94897738Y-103629816D01*
X95050478Y-103725789D01*
X95220745Y-103785368D01*
X95355046Y-103800500D01*
X95441470Y-103800500D01*
X95444954Y-103800500D01*
X95579255Y-103785368D01*
X95749522Y-103725789D01*
X95902262Y-103629816D01*
X96029816Y-103502262D01*
X96125789Y-103349522D01*
X96185368Y-103179255D01*
X96205565Y-103000000D01*
X96185368Y-102820745D01*
X96125789Y-102650478D01*
X96029816Y-102497738D01*
X95902262Y-102370184D01*
X95749522Y-102274211D01*
X95742959Y-102271914D01*
X95742956Y-102271913D01*
X95585825Y-102216931D01*
X95579255Y-102214632D01*
X95572333Y-102213852D01*
X95448418Y-102199890D01*
X95448412Y-102199889D01*
X95444954Y-102199500D01*
X95355046Y-102199500D01*
X95351588Y-102199889D01*
X95351581Y-102199890D01*
X95227666Y-102213852D01*
X95227664Y-102213852D01*
X95220745Y-102214632D01*
X95214176Y-102216930D01*
X95214174Y-102216931D01*
X95057043Y-102271913D01*
X95057036Y-102271915D01*
X95050478Y-102274211D01*
X95044590Y-102277910D01*
X95044587Y-102277912D01*
X94903638Y-102366476D01*
X94903633Y-102366479D01*
X94897738Y-102370184D01*
X94892813Y-102375108D01*
X94892809Y-102375112D01*
X94775112Y-102492809D01*
X94775108Y-102492813D01*
X94770184Y-102497738D01*
X94766479Y-102503633D01*
X94766476Y-102503638D01*
X94677912Y-102644587D01*
X94677910Y-102644590D01*
X94674211Y-102650478D01*
X94671915Y-102657036D01*
X94671913Y-102657043D01*
X94616930Y-102814175D01*
X94616928Y-102814182D01*
X94614632Y-102820745D01*
X94594435Y-103000000D01*
X92300500Y-103000000D01*
X92300500Y-99863320D01*
X93173891Y-99863320D01*
X93188708Y-99952116D01*
X93191219Y-99962027D01*
X93265913Y-100179606D01*
X93270016Y-100188960D01*
X93379507Y-100391281D01*
X93385101Y-100399843D01*
X93526394Y-100581375D01*
X93533315Y-100588895D01*
X93702570Y-100744705D01*
X93710627Y-100750976D01*
X93903222Y-100876804D01*
X93912205Y-100881666D01*
X94122875Y-100974074D01*
X94132542Y-100977393D01*
X94355544Y-101033865D01*
X94365639Y-101035549D01*
X94537466Y-101049787D01*
X94542603Y-101050000D01*
X95133674Y-101050000D01*
X95146549Y-101046549D01*
X95150000Y-101033674D01*
X95650000Y-101033674D01*
X95653450Y-101046549D01*
X95666326Y-101050000D01*
X96257397Y-101050000D01*
X96262533Y-101049787D01*
X96434360Y-101035549D01*
X96444455Y-101033865D01*
X96667457Y-100977393D01*
X96677124Y-100974074D01*
X96887794Y-100881666D01*
X96896777Y-100876804D01*
X97089372Y-100750976D01*
X97097429Y-100744705D01*
X97266684Y-100588895D01*
X97273605Y-100581375D01*
X97414898Y-100399843D01*
X97420492Y-100391281D01*
X97529983Y-100188960D01*
X97534086Y-100179606D01*
X97608780Y-99962027D01*
X97611291Y-99952116D01*
X97626108Y-99863320D01*
X97625541Y-99852363D01*
X97614824Y-99850000D01*
X95666326Y-99850000D01*
X95653450Y-99853450D01*
X95650000Y-99866326D01*
X95650000Y-101033674D01*
X95150000Y-101033674D01*
X95150000Y-99866326D01*
X95146549Y-99853450D01*
X95133674Y-99850000D01*
X93185176Y-99850000D01*
X93174458Y-99852363D01*
X93173891Y-99863320D01*
X92300500Y-99863320D01*
X92300500Y-99336679D01*
X93173891Y-99336679D01*
X93174458Y-99347636D01*
X93185176Y-99350000D01*
X95133674Y-99350000D01*
X95146549Y-99346549D01*
X95150000Y-99333674D01*
X95650000Y-99333674D01*
X95653450Y-99346549D01*
X95666326Y-99350000D01*
X97614824Y-99350000D01*
X97625541Y-99347636D01*
X97626108Y-99336679D01*
X97611291Y-99247883D01*
X97608780Y-99237972D01*
X97534086Y-99020393D01*
X97529983Y-99011039D01*
X97420492Y-98808718D01*
X97414898Y-98800156D01*
X97273605Y-98618624D01*
X97266684Y-98611104D01*
X97097429Y-98455294D01*
X97089372Y-98449023D01*
X96896777Y-98323195D01*
X96887794Y-98318333D01*
X96677124Y-98225925D01*
X96667457Y-98222606D01*
X96444455Y-98166134D01*
X96434360Y-98164450D01*
X96262533Y-98150212D01*
X96257397Y-98150000D01*
X95666326Y-98150000D01*
X95653450Y-98153450D01*
X95650000Y-98166326D01*
X95650000Y-99333674D01*
X95150000Y-99333674D01*
X95150000Y-98166326D01*
X95146549Y-98153450D01*
X95133674Y-98150000D01*
X94542603Y-98150000D01*
X94537466Y-98150212D01*
X94365639Y-98164450D01*
X94355544Y-98166134D01*
X94132542Y-98222606D01*
X94122875Y-98225925D01*
X93912205Y-98318333D01*
X93903222Y-98323195D01*
X93710627Y-98449023D01*
X93702570Y-98455294D01*
X93533315Y-98611104D01*
X93526394Y-98618624D01*
X93385101Y-98800156D01*
X93379507Y-98808718D01*
X93270016Y-99011039D01*
X93265913Y-99020393D01*
X93191219Y-99237972D01*
X93188708Y-99247883D01*
X93173891Y-99336679D01*
X92300500Y-99336679D01*
X92300500Y-97305412D01*
X92300972Y-97294605D01*
X92304415Y-97255250D01*
X92304540Y-97253904D01*
X92316918Y-97128221D01*
X92320540Y-97108318D01*
X92337908Y-97043498D01*
X92338956Y-97039828D01*
X92366685Y-96948419D01*
X92372948Y-96932049D01*
X92403700Y-96866102D01*
X92406670Y-96860161D01*
X92449012Y-96780944D01*
X92456786Y-96768289D01*
X92499639Y-96707089D01*
X92505330Y-96699587D01*
X92561191Y-96631521D01*
X92569325Y-96622547D01*
X92622547Y-96569325D01*
X92631521Y-96561191D01*
X92699587Y-96505330D01*
X92707089Y-96499639D01*
X92768289Y-96456786D01*
X92780944Y-96449012D01*
X92860161Y-96406670D01*
X92866102Y-96403700D01*
X92932049Y-96372948D01*
X92948419Y-96366685D01*
X93039828Y-96338956D01*
X93043498Y-96337908D01*
X93108318Y-96320540D01*
X93128221Y-96316918D01*
X93253927Y-96304537D01*
X93255204Y-96304419D01*
X93294605Y-96300971D01*
X93305412Y-96300500D01*
X118295935Y-96300500D01*
X118304042Y-96300764D01*
G37*
%TD.AperFunction*%
%TD*%
M02*
