%TF.GenerationSoftware,KiCad,Pcbnew,(7.0.0)*%
%TF.CreationDate,2023-02-23T15:33:30+08:00*%
%TF.ProjectId,CK,434b2e6b-6963-4616-945f-706362585858,rev?*%
%TF.SameCoordinates,Original*%
%TF.FileFunction,Copper,L1,Top*%
%TF.FilePolarity,Positive*%
%FSLAX46Y46*%
G04 Gerber Fmt 4.6, Leading zero omitted, Abs format (unit mm)*
G04 Created by KiCad (PCBNEW (7.0.0)) date 2023-02-23 15:33:30*
%MOMM*%
%LPD*%
G01*
G04 APERTURE LIST*
G04 Aperture macros list*
%AMRoundRect*
0 Rectangle with rounded corners*
0 $1 Rounding radius*
0 $2 $3 $4 $5 $6 $7 $8 $9 X,Y pos of 4 corners*
0 Add a 4 corners polygon primitive as box body*
4,1,4,$2,$3,$4,$5,$6,$7,$8,$9,$2,$3,0*
0 Add four circle primitives for the rounded corners*
1,1,$1+$1,$2,$3*
1,1,$1+$1,$4,$5*
1,1,$1+$1,$6,$7*
1,1,$1+$1,$8,$9*
0 Add four rect primitives between the rounded corners*
20,1,$1+$1,$2,$3,$4,$5,0*
20,1,$1+$1,$4,$5,$6,$7,0*
20,1,$1+$1,$6,$7,$8,$9,0*
20,1,$1+$1,$8,$9,$2,$3,0*%
G04 Aperture macros list end*
%TA.AperFunction,ComponentPad*%
%ADD10R,1.700000X1.700000*%
%TD*%
%TA.AperFunction,ComponentPad*%
%ADD11O,1.700000X1.700000*%
%TD*%
%TA.AperFunction,SMDPad,CuDef*%
%ADD12RoundRect,0.062500X0.375000X0.062500X-0.375000X0.062500X-0.375000X-0.062500X0.375000X-0.062500X0*%
%TD*%
%TA.AperFunction,SMDPad,CuDef*%
%ADD13RoundRect,0.062500X0.062500X0.375000X-0.062500X0.375000X-0.062500X-0.375000X0.062500X-0.375000X0*%
%TD*%
%TA.AperFunction,SMDPad,CuDef*%
%ADD14R,3.450000X3.450000*%
%TD*%
%TA.AperFunction,ComponentPad*%
%ADD15O,3.500000X1.900000*%
%TD*%
%TA.AperFunction,SMDPad,CuDef*%
%ADD16R,2.500000X1.100000*%
%TD*%
%TA.AperFunction,SMDPad,CuDef*%
%ADD17RoundRect,0.218750X-0.218750X-0.256250X0.218750X-0.256250X0.218750X0.256250X-0.218750X0.256250X0*%
%TD*%
%TA.AperFunction,SMDPad,CuDef*%
%ADD18RoundRect,0.140000X0.170000X-0.140000X0.170000X0.140000X-0.170000X0.140000X-0.170000X-0.140000X0*%
%TD*%
%TA.AperFunction,SMDPad,CuDef*%
%ADD19RoundRect,0.135000X0.185000X-0.135000X0.185000X0.135000X-0.185000X0.135000X-0.185000X-0.135000X0*%
%TD*%
%TA.AperFunction,SMDPad,CuDef*%
%ADD20RoundRect,0.140000X-0.170000X0.140000X-0.170000X-0.140000X0.170000X-0.140000X0.170000X0.140000X0*%
%TD*%
%TA.AperFunction,SMDPad,CuDef*%
%ADD21C,8.000000*%
%TD*%
%TA.AperFunction,SMDPad,CuDef*%
%ADD22RoundRect,0.135000X0.135000X0.185000X-0.135000X0.185000X-0.135000X-0.185000X0.135000X-0.185000X0*%
%TD*%
%TA.AperFunction,SMDPad,CuDef*%
%ADD23RoundRect,0.150000X-0.512500X-0.150000X0.512500X-0.150000X0.512500X0.150000X-0.512500X0.150000X0*%
%TD*%
%TA.AperFunction,SMDPad,CuDef*%
%ADD24RoundRect,0.140000X-0.140000X-0.170000X0.140000X-0.170000X0.140000X0.170000X-0.140000X0.170000X0*%
%TD*%
%TA.AperFunction,ViaPad*%
%ADD25C,0.800000*%
%TD*%
%TA.AperFunction,Conductor*%
%ADD26C,0.250000*%
%TD*%
%TA.AperFunction,Conductor*%
%ADD27C,0.500000*%
%TD*%
%TA.AperFunction,Conductor*%
%ADD28C,0.200000*%
%TD*%
%TA.AperFunction,Conductor*%
%ADD29C,0.300000*%
%TD*%
G04 APERTURE END LIST*
D10*
%TO.P,J2,1,Pin_1*%
%TO.N,/+3.3V*%
X112319999Y-98249999D03*
D11*
%TO.P,J2,2,Pin_2*%
%TO.N,/GND*%
X109779999Y-98249999D03*
%TO.P,J2,3,Pin_3*%
%TO.N,/DBG_TX*%
X107239999Y-98249999D03*
%TO.P,J2,4,Pin_4*%
%TO.N,/SWDCLK*%
X104699999Y-98249999D03*
%TO.P,J2,5,Pin_5*%
%TO.N,/SWDIO*%
X102159999Y-98249999D03*
%TD*%
D12*
%TO.P,U1,1,VDD*%
%TO.N,/+3.3V*%
X107987500Y-105550000D03*
%TO.P,U1,2,PC14*%
%TO.N,unconnected-(U1-PC14-Pad2)*%
X107987500Y-105050000D03*
%TO.P,U1,3,PC15*%
%TO.N,unconnected-(U1-PC15-Pad3)*%
X107987500Y-104550000D03*
%TO.P,U1,4,NRST*%
%TO.N,/RST*%
X107987500Y-104050000D03*
%TO.P,U1,5,VDDA*%
%TO.N,/+3.3V*%
X107987500Y-103550000D03*
%TO.P,U1,6,PA0*%
%TO.N,unconnected-(U1-PA0-Pad6)*%
X107987500Y-103050000D03*
%TO.P,U1,7,PA1*%
%TO.N,unconnected-(U1-PA1-Pad7)*%
X107987500Y-102550000D03*
%TO.P,U1,8,PA2*%
%TO.N,/DBG_TX*%
X107987500Y-102050000D03*
D13*
%TO.P,U1,9,PA3*%
%TO.N,unconnected-(U1-PA3-Pad9)*%
X107300000Y-101362500D03*
%TO.P,U1,10,PA4*%
%TO.N,unconnected-(U1-PA4-Pad10)*%
X106800000Y-101362500D03*
%TO.P,U1,11,PA5*%
%TO.N,unconnected-(U1-PA5-Pad11)*%
X106300000Y-101362500D03*
%TO.P,U1,12,PA6*%
%TO.N,unconnected-(U1-PA6-Pad12)*%
X105800000Y-101362500D03*
%TO.P,U1,13,PA7*%
%TO.N,unconnected-(U1-PA7-Pad13)*%
X105300000Y-101362500D03*
%TO.P,U1,14,PB0*%
%TO.N,unconnected-(U1-PB0-Pad14)*%
X104800000Y-101362500D03*
%TO.P,U1,15,PB1*%
%TO.N,unconnected-(U1-PB1-Pad15)*%
X104300000Y-101362500D03*
%TO.P,U1,16,VSS*%
%TO.N,/GND*%
X103800000Y-101362500D03*
D12*
%TO.P,U1,17,VDD*%
%TO.N,/+3.3V*%
X103112500Y-102050000D03*
%TO.P,U1,18,PA8*%
%TO.N,unconnected-(U1-PA8-Pad18)*%
X103112500Y-102550000D03*
%TO.P,U1,19,PA9*%
%TO.N,unconnected-(U1-PA9-Pad19)*%
X103112500Y-103050000D03*
%TO.P,U1,20,PA10*%
%TO.N,unconnected-(U1-PA10-Pad20)*%
X103112500Y-103550000D03*
%TO.P,U1,21,PA11*%
%TO.N,/USB_DM*%
X103112500Y-104050000D03*
%TO.P,U1,22,PA12*%
%TO.N,/USB_DP*%
X103112500Y-104550000D03*
%TO.P,U1,23,PA13*%
%TO.N,/SWDCLK*%
X103112500Y-105050000D03*
%TO.P,U1,24,PA14*%
%TO.N,/SWDIO*%
X103112500Y-105550000D03*
D13*
%TO.P,U1,25,PA15*%
%TO.N,unconnected-(U1-PA15-Pad25)*%
X103800000Y-106237500D03*
%TO.P,U1,26,PB3*%
%TO.N,/LED*%
X104300000Y-106237500D03*
%TO.P,U1,27,PB4*%
%TO.N,Net-(U1-PB4)*%
X104800000Y-106237500D03*
%TO.P,U1,28,PB5*%
X105300000Y-106237500D03*
%TO.P,U1,29,PB6*%
%TO.N,unconnected-(U1-PB6-Pad29)*%
X105800000Y-106237500D03*
%TO.P,U1,30,PB7*%
%TO.N,unconnected-(U1-PB7-Pad30)*%
X106300000Y-106237500D03*
%TO.P,U1,31,PH3*%
%TO.N,/TOUCH*%
X106800000Y-106237500D03*
%TO.P,U1,32,VSS*%
%TO.N,/GND*%
X107300000Y-106237500D03*
D14*
%TO.P,U1,33,VSS*%
X105549999Y-103799999D03*
%TD*%
D15*
%TO.P,J1,5,Shield*%
%TO.N,/GND*%
X95399999Y-99599999D03*
X95399999Y-110999999D03*
D16*
%TO.P,J1,4,GND*%
X98149999Y-101799999D03*
%TO.P,J1,3,D+*%
%TO.N,/USB_DP*%
X98149999Y-104299999D03*
%TO.P,J1,2,D-*%
%TO.N,/USB_DM*%
X98149999Y-106299999D03*
%TO.P,J1,1,VBUS*%
%TO.N,/+5V_USB*%
X98149999Y-108799999D03*
%TD*%
D17*
%TO.P,D1,1,K*%
%TO.N,/GND*%
X101400000Y-108500000D03*
%TO.P,D1,2,A*%
%TO.N,Net-(D1-A)*%
X102975000Y-108500000D03*
%TD*%
D18*
%TO.P,C2,1*%
%TO.N,/GND*%
X109050000Y-108700000D03*
%TO.P,C2,2*%
%TO.N,/+3.3V*%
X109050000Y-107740000D03*
%TD*%
D19*
%TO.P,R2,1*%
%TO.N,Net-(D1-A)*%
X104300000Y-108870000D03*
%TO.P,R2,2*%
%TO.N,/LED*%
X104300000Y-107850000D03*
%TD*%
D20*
%TO.P,C5,1*%
%TO.N,/+5V_USB*%
X100975000Y-110800000D03*
%TO.P,C5,2*%
%TO.N,/GND*%
X100975000Y-111760000D03*
%TD*%
D21*
%TO.P,TP1,1,1*%
%TO.N,/TOUCH*%
X116000000Y-105450000D03*
%TD*%
D20*
%TO.P,C6,1*%
%TO.N,/+3.3V*%
X106625000Y-110800000D03*
%TO.P,C6,2*%
%TO.N,/GND*%
X106625000Y-111760000D03*
%TD*%
D22*
%TO.P,R1,1*%
%TO.N,/GND*%
X107970000Y-108700000D03*
%TO.P,R1,2*%
%TO.N,/TOUCH*%
X106950000Y-108700000D03*
%TD*%
D20*
%TO.P,C4,1*%
%TO.N,/GND*%
X109450000Y-101990000D03*
%TO.P,C4,2*%
%TO.N,/+3.3V*%
X109450000Y-102950000D03*
%TD*%
D18*
%TO.P,C1,1*%
%TO.N,/GND*%
X109450000Y-105010000D03*
%TO.P,C1,2*%
%TO.N,/RST*%
X109450000Y-104050000D03*
%TD*%
D23*
%TO.P,U2,5,OUT*%
%TO.N,/+3.3V*%
X104925000Y-110800000D03*
%TO.P,U2,4,NR*%
%TO.N,unconnected-(U2-NR-Pad4)*%
X104925000Y-112700000D03*
%TO.P,U2,3,EN*%
%TO.N,/+5V_USB*%
X102650000Y-112700000D03*
%TO.P,U2,2,GND*%
%TO.N,/GND*%
X102650000Y-111750000D03*
%TO.P,U2,1,IN*%
%TO.N,/+5V_USB*%
X102650000Y-110800000D03*
%TD*%
D24*
%TO.P,C3,1*%
%TO.N,/GND*%
X100790000Y-102000000D03*
%TO.P,C3,2*%
%TO.N,/+3.3V*%
X101750000Y-102000000D03*
%TD*%
D22*
%TO.P,R3,1*%
%TO.N,/+3.3V*%
X107970000Y-107650000D03*
%TO.P,R3,2*%
%TO.N,/TOUCH*%
X106950000Y-107650000D03*
%TD*%
D25*
%TO.N,/GND*%
X99363000Y-111450000D03*
X106800000Y-112500000D03*
X103000000Y-100950000D03*
X106425000Y-104675000D03*
X104650000Y-104750000D03*
X106500000Y-102750000D03*
X104650000Y-102800000D03*
X109850000Y-105650000D03*
X108500000Y-108700000D03*
X107950000Y-106600000D03*
X103900000Y-111760000D03*
X97300000Y-113300000D03*
%TO.N,/+3.3V*%
X110500000Y-111500000D03*
X110500000Y-107700000D03*
X110750000Y-100050000D03*
X106750000Y-100050000D03*
%TO.N,/GND*%
X99800000Y-100250000D03*
X98100000Y-99900000D03*
X101400000Y-107550000D03*
%TO.N,/+5V_USB*%
X100200000Y-112800000D03*
X100212500Y-110037500D03*
%TO.N,/USB_DM*%
X100400000Y-106150000D03*
X100400000Y-103600000D03*
%TO.N,/SWDCLK*%
X101900000Y-105450000D03*
%TO.N,/SWDIO*%
X101386601Y-106310076D03*
%TD*%
D26*
%TO.N,/SWDIO*%
X102650000Y-106012500D02*
X102352424Y-106310076D01*
X102750000Y-105550000D02*
X102650000Y-105650000D01*
X102650000Y-105650000D02*
X102650000Y-106012500D01*
X103112500Y-105550000D02*
X102750000Y-105550000D01*
X101386601Y-106310076D02*
X102352424Y-106310076D01*
D27*
%TO.N,/GND*%
X99673000Y-111760000D02*
X99363000Y-111450000D01*
X100975000Y-111760000D02*
X99673000Y-111760000D01*
X106625000Y-112325000D02*
X106800000Y-112500000D01*
X106625000Y-111760000D02*
X106625000Y-112325000D01*
D28*
X103850000Y-102000000D02*
X104650000Y-102800000D01*
X103850000Y-101412500D02*
X103850000Y-102000000D01*
X103800000Y-101362500D02*
X103850000Y-101412500D01*
D26*
X103412500Y-101362500D02*
X103000000Y-100950000D01*
X103800000Y-101362500D02*
X103412500Y-101362500D01*
D29*
X105550000Y-103800000D02*
X106425000Y-104675000D01*
D28*
X107225000Y-105475000D02*
X106425000Y-104675000D01*
D29*
X105550000Y-103850000D02*
X104650000Y-104750000D01*
X105550000Y-103800000D02*
X105550000Y-103850000D01*
X105550000Y-103700000D02*
X106500000Y-102750000D01*
X105550000Y-103700000D02*
X104650000Y-102800000D01*
X105550000Y-103800000D02*
X105550000Y-103700000D01*
X109450000Y-105250000D02*
X109850000Y-105650000D01*
X109450000Y-105010000D02*
X109450000Y-105250000D01*
D27*
X109050000Y-108700000D02*
X108500000Y-108700000D01*
X108500000Y-108700000D02*
X107970000Y-108700000D01*
D26*
X107587500Y-106237500D02*
X107950000Y-106600000D01*
X107300000Y-106237500D02*
X107587500Y-106237500D01*
%TO.N,Net-(U1-PB4)*%
X104900000Y-107150000D02*
X105200000Y-107150000D01*
X105300000Y-107050000D02*
X105300000Y-106237500D01*
X104800000Y-107050000D02*
X104900000Y-107150000D01*
X105200000Y-107150000D02*
X105300000Y-107050000D01*
X104800000Y-106237500D02*
X104800000Y-107050000D01*
D27*
%TO.N,/GND*%
X102660000Y-111760000D02*
X102650000Y-111750000D01*
X106625000Y-111760000D02*
X102660000Y-111760000D01*
X97300000Y-111760000D02*
X97300000Y-113300000D01*
X97300000Y-111760000D02*
X96160000Y-111760000D01*
X100975000Y-111760000D02*
X97300000Y-111760000D01*
%TO.N,/+3.3V*%
X109090000Y-107700000D02*
X109050000Y-107740000D01*
X110500000Y-107700000D02*
X109090000Y-107700000D01*
X109800000Y-110800000D02*
X110500000Y-111500000D01*
X106625000Y-110800000D02*
X109800000Y-110800000D01*
D29*
X112320000Y-100430000D02*
X112320000Y-98250000D01*
X110750000Y-102000000D02*
X112320000Y-100430000D01*
X110750000Y-106040000D02*
X109050000Y-107740000D01*
X110750000Y-102000000D02*
X110750000Y-106040000D01*
D26*
%TO.N,/TOUCH*%
X111550000Y-109900000D02*
X116000000Y-105450000D01*
X107550000Y-109900000D02*
X111550000Y-109900000D01*
X106950000Y-108700000D02*
X106950000Y-109300000D01*
X106950000Y-109300000D02*
X107550000Y-109900000D01*
D29*
%TO.N,/+3.3V*%
X110750000Y-102000000D02*
X109875000Y-102875000D01*
X110750000Y-100050000D02*
X110750000Y-102000000D01*
D26*
X109875000Y-102875000D02*
X112320000Y-100430000D01*
D29*
X102750000Y-100050000D02*
X106500000Y-100050000D01*
X106500000Y-100050000D02*
X106750000Y-100050000D01*
D26*
X109800000Y-102950000D02*
X109875000Y-102875000D01*
D29*
X101750000Y-101050000D02*
X102750000Y-100050000D01*
X101750000Y-102000000D02*
X101750000Y-101050000D01*
%TO.N,/GND*%
X100790000Y-101240000D02*
X99800000Y-100250000D01*
X100790000Y-102000000D02*
X100790000Y-101240000D01*
X98150000Y-99950000D02*
X98100000Y-99900000D01*
X98150000Y-101800000D02*
X98150000Y-99950000D01*
D27*
X101400000Y-108500000D02*
X101400000Y-107550000D01*
%TO.N,/+5V_USB*%
X101400000Y-112800000D02*
X101500000Y-112700000D01*
X100200000Y-112800000D02*
X101400000Y-112800000D01*
X101500000Y-112700000D02*
X102650000Y-112700000D01*
X98975000Y-108800000D02*
X100975000Y-110800000D01*
X98150000Y-108800000D02*
X98975000Y-108800000D01*
%TO.N,/+3.3V*%
X106625000Y-110800000D02*
X104925000Y-110800000D01*
%TO.N,/GND*%
X96160000Y-111760000D02*
X95400000Y-111000000D01*
X100985000Y-111750000D02*
X100975000Y-111760000D01*
X102650000Y-111750000D02*
X100985000Y-111750000D01*
%TO.N,/+5V_USB*%
X102650000Y-110800000D02*
X100975000Y-110800000D01*
D26*
%TO.N,Net-(D1-A)*%
X103345000Y-108870000D02*
X102975000Y-108500000D01*
X104300000Y-108870000D02*
X103345000Y-108870000D01*
%TO.N,/LED*%
X104300000Y-106237500D02*
X104300000Y-107850000D01*
%TO.N,/DBG_TX*%
X107987500Y-98997500D02*
X107240000Y-98250000D01*
X107987500Y-102050000D02*
X107987500Y-98997500D01*
%TO.N,/+3.3V*%
X109450000Y-102950000D02*
X109800000Y-102950000D01*
%TO.N,/GND*%
X109780000Y-101660000D02*
X109780000Y-98250000D01*
X109450000Y-101990000D02*
X109780000Y-101660000D01*
D28*
X107225000Y-105975000D02*
X107225000Y-105475000D01*
D26*
X100590000Y-101800000D02*
X98150000Y-101800000D01*
D28*
X107300000Y-106237500D02*
X107300000Y-106050000D01*
X107300000Y-106050000D02*
X107225000Y-105975000D01*
D26*
X100790000Y-102000000D02*
X100590000Y-101800000D01*
%TO.N,/RST*%
X107987500Y-104050000D02*
X109450000Y-104050000D01*
%TO.N,/+3.3V*%
X107987500Y-105550000D02*
X108400000Y-105550000D01*
X109050000Y-106200000D02*
X109050000Y-107740000D01*
X101800000Y-102050000D02*
X101750000Y-102000000D01*
X107987500Y-103550000D02*
X108850000Y-103550000D01*
X108400000Y-105550000D02*
X109050000Y-106200000D01*
X107970000Y-107650000D02*
X108960000Y-107650000D01*
X108960000Y-107650000D02*
X109050000Y-107740000D01*
X103112500Y-102050000D02*
X101800000Y-102050000D01*
X108850000Y-103550000D02*
X109450000Y-102950000D01*
%TO.N,/USB_DM*%
X101200000Y-104050000D02*
X100750000Y-103600000D01*
X100400000Y-106150000D02*
X100600000Y-106300000D01*
X100750000Y-103600000D02*
X100400000Y-103600000D01*
X101200000Y-104050000D02*
X103112500Y-104050000D01*
X100600000Y-106300000D02*
X98150000Y-106300000D01*
%TO.N,/USB_DP*%
X98400000Y-104550000D02*
X98150000Y-104300000D01*
X103112500Y-104550000D02*
X98400000Y-104550000D01*
%TO.N,/SWDCLK*%
X103112500Y-105050000D02*
X102300000Y-105050000D01*
X102300000Y-105050000D02*
X101900000Y-105450000D01*
%TO.N,/TOUCH*%
X106800000Y-107500000D02*
X106950000Y-107650000D01*
X106800000Y-106237500D02*
X106800000Y-107500000D01*
X106950000Y-107650000D02*
X106950000Y-108700000D01*
%TD*%
M02*
