%TF.GenerationSoftware,KiCad,Pcbnew,(7.0.0)*%
%TF.CreationDate,2023-02-23T15:33:30+08:00*%
%TF.ProjectId,CK,434b2e6b-6963-4616-945f-706362585858,rev?*%
%TF.SameCoordinates,Original*%
%TF.FileFunction,Paste,Top*%
%TF.FilePolarity,Positive*%
%FSLAX46Y46*%
G04 Gerber Fmt 4.6, Leading zero omitted, Abs format (unit mm)*
G04 Created by KiCad (PCBNEW (7.0.0)) date 2023-02-23 15:33:30*
%MOMM*%
%LPD*%
G01*
G04 APERTURE LIST*
G04 Aperture macros list*
%AMRoundRect*
0 Rectangle with rounded corners*
0 $1 Rounding radius*
0 $2 $3 $4 $5 $6 $7 $8 $9 X,Y pos of 4 corners*
0 Add a 4 corners polygon primitive as box body*
4,1,4,$2,$3,$4,$5,$6,$7,$8,$9,$2,$3,0*
0 Add four circle primitives for the rounded corners*
1,1,$1+$1,$2,$3*
1,1,$1+$1,$4,$5*
1,1,$1+$1,$6,$7*
1,1,$1+$1,$8,$9*
0 Add four rect primitives between the rounded corners*
20,1,$1+$1,$2,$3,$4,$5,0*
20,1,$1+$1,$4,$5,$6,$7,0*
20,1,$1+$1,$6,$7,$8,$9,0*
20,1,$1+$1,$8,$9,$2,$3,0*%
G04 Aperture macros list end*
%ADD10RoundRect,0.232500X0.232500X0.232500X-0.232500X0.232500X-0.232500X-0.232500X0.232500X-0.232500X0*%
%ADD11RoundRect,0.062500X0.375000X0.062500X-0.375000X0.062500X-0.375000X-0.062500X0.375000X-0.062500X0*%
%ADD12RoundRect,0.062500X0.062500X0.375000X-0.062500X0.375000X-0.062500X-0.375000X0.062500X-0.375000X0*%
%ADD13R,2.500000X1.100000*%
%ADD14RoundRect,0.218750X-0.218750X-0.256250X0.218750X-0.256250X0.218750X0.256250X-0.218750X0.256250X0*%
%ADD15RoundRect,0.140000X0.170000X-0.140000X0.170000X0.140000X-0.170000X0.140000X-0.170000X-0.140000X0*%
%ADD16RoundRect,0.135000X0.185000X-0.135000X0.185000X0.135000X-0.185000X0.135000X-0.185000X-0.135000X0*%
%ADD17RoundRect,0.140000X-0.170000X0.140000X-0.170000X-0.140000X0.170000X-0.140000X0.170000X0.140000X0*%
%ADD18C,8.000000*%
%ADD19RoundRect,0.135000X0.135000X0.185000X-0.135000X0.185000X-0.135000X-0.185000X0.135000X-0.185000X0*%
%ADD20RoundRect,0.150000X-0.512500X-0.150000X0.512500X-0.150000X0.512500X0.150000X-0.512500X0.150000X0*%
%ADD21RoundRect,0.140000X-0.140000X-0.170000X0.140000X-0.170000X0.140000X0.170000X-0.140000X0.170000X0*%
G04 APERTURE END LIST*
D10*
%TO.C,U1*%
X106700000Y-104950000D03*
X106700000Y-103800000D03*
X106700000Y-102650000D03*
X105550000Y-104950000D03*
X105550000Y-103800000D03*
X105550000Y-102650000D03*
X104400000Y-104950000D03*
X104400000Y-103800000D03*
X104400000Y-102650000D03*
D11*
X107987500Y-105550000D03*
X107987500Y-105050000D03*
X107987500Y-104550000D03*
X107987500Y-104050000D03*
X107987500Y-103550000D03*
X107987500Y-103050000D03*
X107987500Y-102550000D03*
X107987500Y-102050000D03*
D12*
X107300000Y-101362500D03*
X106800000Y-101362500D03*
X106300000Y-101362500D03*
X105800000Y-101362500D03*
X105300000Y-101362500D03*
X104800000Y-101362500D03*
X104300000Y-101362500D03*
X103800000Y-101362500D03*
D11*
X103112500Y-102050000D03*
X103112500Y-102550000D03*
X103112500Y-103050000D03*
X103112500Y-103550000D03*
X103112500Y-104050000D03*
X103112500Y-104550000D03*
X103112500Y-105050000D03*
X103112500Y-105550000D03*
D12*
X103800000Y-106237500D03*
X104300000Y-106237500D03*
X104800000Y-106237500D03*
X105300000Y-106237500D03*
X105800000Y-106237500D03*
X106300000Y-106237500D03*
X106800000Y-106237500D03*
X107300000Y-106237500D03*
%TD*%
D13*
%TO.C,J1*%
X98149999Y-101799999D03*
X98149999Y-104299999D03*
X98149999Y-106299999D03*
X98149999Y-108799999D03*
%TD*%
D14*
%TO.C,D1*%
X101400000Y-108500000D03*
X102975000Y-108500000D03*
%TD*%
D15*
%TO.C,C2*%
X109050000Y-108700000D03*
X109050000Y-107740000D03*
%TD*%
D16*
%TO.C,R2*%
X104300000Y-108870000D03*
X104300000Y-107850000D03*
%TD*%
D17*
%TO.C,C5*%
X100975000Y-110800000D03*
X100975000Y-111760000D03*
%TD*%
D18*
%TO.C,TP1*%
X116000000Y-105450000D03*
%TD*%
D17*
%TO.C,C6*%
X106625000Y-110800000D03*
X106625000Y-111760000D03*
%TD*%
D19*
%TO.C,R1*%
X107970000Y-108700000D03*
X106950000Y-108700000D03*
%TD*%
D17*
%TO.C,C4*%
X109450000Y-101990000D03*
X109450000Y-102950000D03*
%TD*%
D15*
%TO.C,C1*%
X109450000Y-105010000D03*
X109450000Y-104050000D03*
%TD*%
D20*
%TO.C,U2*%
X104925000Y-110800000D03*
X104925000Y-112700000D03*
X102650000Y-112700000D03*
X102650000Y-111750000D03*
X102650000Y-110800000D03*
%TD*%
D21*
%TO.C,C3*%
X100790000Y-102000000D03*
X101750000Y-102000000D03*
%TD*%
D19*
%TO.C,R3*%
X107970000Y-107650000D03*
X106950000Y-107650000D03*
%TD*%
M02*
