%TF.GenerationSoftware,KiCad,Pcbnew,(7.0.0)*%
%TF.CreationDate,2023-02-23T15:33:38+08:00*%
%TF.ProjectId,CK,434b2e6b-6963-4616-945f-706362585858,rev?*%
%TF.SameCoordinates,Original*%
%TF.FileFunction,Drillmap*%
%TF.FilePolarity,Positive*%
%FSLAX45Y45*%
G04 Gerber Fmt 4.5, Leading zero omitted, Abs format (unit mm)*
G04 Created by KiCad (PCBNEW (7.0.0)) date 2023-02-23 15:33:38*
%MOMM*%
%LPD*%
G01*
G04 APERTURE LIST*
%ADD10C,0.100000*%
%ADD11C,0.200000*%
%ADD12C,0.110000*%
G04 APERTURE END LIST*
D10*
X12030000Y-9830000D02*
G75*
G03*
X11830000Y-9630000I-200000J0D01*
G01*
X9330000Y-11430000D02*
X11830000Y-11430000D01*
X12030000Y-11230000D02*
X12030000Y-9830000D01*
X9230000Y-11330000D02*
G75*
G03*
X9330000Y-11430000I100000J0D01*
G01*
X11830000Y-11430000D02*
G75*
G03*
X12030000Y-11230000I0J200000D01*
G01*
X9230000Y-9730000D02*
X9230000Y-11330000D01*
X11830000Y-9630000D02*
X9330000Y-9630000D01*
X9330000Y-9630000D02*
G75*
G03*
X9230000Y-9730000I0J-100000D01*
G01*
D11*
D12*
X9485000Y-10245000D02*
X9595000Y-10355000D01*
X9595000Y-10245000D02*
X9485000Y-10355000D01*
X9485000Y-10705000D02*
X9595000Y-10815000D01*
X9595000Y-10705000D02*
X9485000Y-10815000D01*
D11*
X9472619Y-11728476D02*
X9472619Y-11528476D01*
X9472619Y-11528476D02*
X9520238Y-11528476D01*
X9520238Y-11528476D02*
X9548810Y-11538000D01*
X9548810Y-11538000D02*
X9567857Y-11557048D01*
X9567857Y-11557048D02*
X9577381Y-11576095D01*
X9577381Y-11576095D02*
X9586905Y-11614190D01*
X9586905Y-11614190D02*
X9586905Y-11642762D01*
X9586905Y-11642762D02*
X9577381Y-11680857D01*
X9577381Y-11680857D02*
X9567857Y-11699905D01*
X9567857Y-11699905D02*
X9548810Y-11718952D01*
X9548810Y-11718952D02*
X9520238Y-11728476D01*
X9520238Y-11728476D02*
X9472619Y-11728476D01*
X9672619Y-11728476D02*
X9672619Y-11595143D01*
X9672619Y-11633238D02*
X9682143Y-11614190D01*
X9682143Y-11614190D02*
X9691667Y-11604667D01*
X9691667Y-11604667D02*
X9710714Y-11595143D01*
X9710714Y-11595143D02*
X9729762Y-11595143D01*
X9796429Y-11728476D02*
X9796429Y-11595143D01*
X9796429Y-11528476D02*
X9786905Y-11538000D01*
X9786905Y-11538000D02*
X9796429Y-11547524D01*
X9796429Y-11547524D02*
X9805952Y-11538000D01*
X9805952Y-11538000D02*
X9796429Y-11528476D01*
X9796429Y-11528476D02*
X9796429Y-11547524D01*
X9920238Y-11728476D02*
X9901190Y-11718952D01*
X9901190Y-11718952D02*
X9891667Y-11699905D01*
X9891667Y-11699905D02*
X9891667Y-11528476D01*
X10025000Y-11728476D02*
X10005952Y-11718952D01*
X10005952Y-11718952D02*
X9996429Y-11699905D01*
X9996429Y-11699905D02*
X9996429Y-11528476D01*
X10221190Y-11728476D02*
X10221190Y-11528476D01*
X10221190Y-11528476D02*
X10287857Y-11671333D01*
X10287857Y-11671333D02*
X10354524Y-11528476D01*
X10354524Y-11528476D02*
X10354524Y-11728476D01*
X10535476Y-11728476D02*
X10535476Y-11623714D01*
X10535476Y-11623714D02*
X10525952Y-11604667D01*
X10525952Y-11604667D02*
X10506905Y-11595143D01*
X10506905Y-11595143D02*
X10468809Y-11595143D01*
X10468809Y-11595143D02*
X10449762Y-11604667D01*
X10535476Y-11718952D02*
X10516429Y-11728476D01*
X10516429Y-11728476D02*
X10468809Y-11728476D01*
X10468809Y-11728476D02*
X10449762Y-11718952D01*
X10449762Y-11718952D02*
X10440238Y-11699905D01*
X10440238Y-11699905D02*
X10440238Y-11680857D01*
X10440238Y-11680857D02*
X10449762Y-11661809D01*
X10449762Y-11661809D02*
X10468809Y-11652286D01*
X10468809Y-11652286D02*
X10516429Y-11652286D01*
X10516429Y-11652286D02*
X10535476Y-11642762D01*
X10630714Y-11595143D02*
X10630714Y-11795143D01*
X10630714Y-11604667D02*
X10649762Y-11595143D01*
X10649762Y-11595143D02*
X10687857Y-11595143D01*
X10687857Y-11595143D02*
X10706905Y-11604667D01*
X10706905Y-11604667D02*
X10716429Y-11614190D01*
X10716429Y-11614190D02*
X10725952Y-11633238D01*
X10725952Y-11633238D02*
X10725952Y-11690381D01*
X10725952Y-11690381D02*
X10716429Y-11709428D01*
X10716429Y-11709428D02*
X10706905Y-11718952D01*
X10706905Y-11718952D02*
X10687857Y-11728476D01*
X10687857Y-11728476D02*
X10649762Y-11728476D01*
X10649762Y-11728476D02*
X10630714Y-11718952D01*
X10811667Y-11709428D02*
X10821190Y-11718952D01*
X10821190Y-11718952D02*
X10811667Y-11728476D01*
X10811667Y-11728476D02*
X10802143Y-11718952D01*
X10802143Y-11718952D02*
X10811667Y-11709428D01*
X10811667Y-11709428D02*
X10811667Y-11728476D01*
X10811667Y-11604667D02*
X10821190Y-11614190D01*
X10821190Y-11614190D02*
X10811667Y-11623714D01*
X10811667Y-11623714D02*
X10802143Y-11614190D01*
X10802143Y-11614190D02*
X10811667Y-11604667D01*
X10811667Y-11604667D02*
X10811667Y-11623714D01*
D12*
X9115000Y-12020000D02*
X9225000Y-12130000D01*
X9225000Y-12020000D02*
X9115000Y-12130000D01*
D11*
X9577381Y-12148476D02*
X9463095Y-12148476D01*
X9520238Y-12148476D02*
X9520238Y-11948476D01*
X9520238Y-11948476D02*
X9501190Y-11977048D01*
X9501190Y-11977048D02*
X9482143Y-11996095D01*
X9482143Y-11996095D02*
X9463095Y-12005619D01*
X9663095Y-12129428D02*
X9672619Y-12138952D01*
X9672619Y-12138952D02*
X9663095Y-12148476D01*
X9663095Y-12148476D02*
X9653571Y-12138952D01*
X9653571Y-12138952D02*
X9663095Y-12129428D01*
X9663095Y-12129428D02*
X9663095Y-12148476D01*
X9863095Y-12148476D02*
X9748810Y-12148476D01*
X9805952Y-12148476D02*
X9805952Y-11948476D01*
X9805952Y-11948476D02*
X9786905Y-11977048D01*
X9786905Y-11977048D02*
X9767857Y-11996095D01*
X9767857Y-11996095D02*
X9748810Y-12005619D01*
X9986905Y-11948476D02*
X10005952Y-11948476D01*
X10005952Y-11948476D02*
X10025000Y-11958000D01*
X10025000Y-11958000D02*
X10034524Y-11967524D01*
X10034524Y-11967524D02*
X10044048Y-11986571D01*
X10044048Y-11986571D02*
X10053571Y-12024667D01*
X10053571Y-12024667D02*
X10053571Y-12072286D01*
X10053571Y-12072286D02*
X10044048Y-12110381D01*
X10044048Y-12110381D02*
X10034524Y-12129428D01*
X10034524Y-12129428D02*
X10025000Y-12138952D01*
X10025000Y-12138952D02*
X10005952Y-12148476D01*
X10005952Y-12148476D02*
X9986905Y-12148476D01*
X9986905Y-12148476D02*
X9967857Y-12138952D01*
X9967857Y-12138952D02*
X9958333Y-12129428D01*
X9958333Y-12129428D02*
X9948810Y-12110381D01*
X9948810Y-12110381D02*
X9939286Y-12072286D01*
X9939286Y-12072286D02*
X9939286Y-12024667D01*
X9939286Y-12024667D02*
X9948810Y-11986571D01*
X9948810Y-11986571D02*
X9958333Y-11967524D01*
X9958333Y-11967524D02*
X9967857Y-11958000D01*
X9967857Y-11958000D02*
X9986905Y-11948476D01*
X10177381Y-11948476D02*
X10196429Y-11948476D01*
X10196429Y-11948476D02*
X10215476Y-11958000D01*
X10215476Y-11958000D02*
X10225000Y-11967524D01*
X10225000Y-11967524D02*
X10234524Y-11986571D01*
X10234524Y-11986571D02*
X10244048Y-12024667D01*
X10244048Y-12024667D02*
X10244048Y-12072286D01*
X10244048Y-12072286D02*
X10234524Y-12110381D01*
X10234524Y-12110381D02*
X10225000Y-12129428D01*
X10225000Y-12129428D02*
X10215476Y-12138952D01*
X10215476Y-12138952D02*
X10196429Y-12148476D01*
X10196429Y-12148476D02*
X10177381Y-12148476D01*
X10177381Y-12148476D02*
X10158333Y-12138952D01*
X10158333Y-12138952D02*
X10148810Y-12129428D01*
X10148810Y-12129428D02*
X10139286Y-12110381D01*
X10139286Y-12110381D02*
X10129762Y-12072286D01*
X10129762Y-12072286D02*
X10129762Y-12024667D01*
X10129762Y-12024667D02*
X10139286Y-11986571D01*
X10139286Y-11986571D02*
X10148810Y-11967524D01*
X10148810Y-11967524D02*
X10158333Y-11958000D01*
X10158333Y-11958000D02*
X10177381Y-11948476D01*
X10329762Y-12148476D02*
X10329762Y-12015143D01*
X10329762Y-12034190D02*
X10339286Y-12024667D01*
X10339286Y-12024667D02*
X10358333Y-12015143D01*
X10358333Y-12015143D02*
X10386905Y-12015143D01*
X10386905Y-12015143D02*
X10405952Y-12024667D01*
X10405952Y-12024667D02*
X10415476Y-12043714D01*
X10415476Y-12043714D02*
X10415476Y-12148476D01*
X10415476Y-12043714D02*
X10425000Y-12024667D01*
X10425000Y-12024667D02*
X10444048Y-12015143D01*
X10444048Y-12015143D02*
X10472619Y-12015143D01*
X10472619Y-12015143D02*
X10491667Y-12024667D01*
X10491667Y-12024667D02*
X10501191Y-12043714D01*
X10501191Y-12043714D02*
X10501191Y-12148476D01*
X10596429Y-12148476D02*
X10596429Y-12015143D01*
X10596429Y-12034190D02*
X10605952Y-12024667D01*
X10605952Y-12024667D02*
X10625000Y-12015143D01*
X10625000Y-12015143D02*
X10653572Y-12015143D01*
X10653572Y-12015143D02*
X10672619Y-12024667D01*
X10672619Y-12024667D02*
X10682143Y-12043714D01*
X10682143Y-12043714D02*
X10682143Y-12148476D01*
X10682143Y-12043714D02*
X10691667Y-12024667D01*
X10691667Y-12024667D02*
X10710714Y-12015143D01*
X10710714Y-12015143D02*
X10739286Y-12015143D01*
X10739286Y-12015143D02*
X10758333Y-12024667D01*
X10758333Y-12024667D02*
X10767857Y-12043714D01*
X10767857Y-12043714D02*
X10767857Y-12148476D01*
X11125952Y-11938952D02*
X10954524Y-12196095D01*
X11350714Y-11948476D02*
X11369762Y-11948476D01*
X11369762Y-11948476D02*
X11388810Y-11958000D01*
X11388810Y-11958000D02*
X11398333Y-11967524D01*
X11398333Y-11967524D02*
X11407857Y-11986571D01*
X11407857Y-11986571D02*
X11417381Y-12024667D01*
X11417381Y-12024667D02*
X11417381Y-12072286D01*
X11417381Y-12072286D02*
X11407857Y-12110381D01*
X11407857Y-12110381D02*
X11398333Y-12129428D01*
X11398333Y-12129428D02*
X11388810Y-12138952D01*
X11388810Y-12138952D02*
X11369762Y-12148476D01*
X11369762Y-12148476D02*
X11350714Y-12148476D01*
X11350714Y-12148476D02*
X11331667Y-12138952D01*
X11331667Y-12138952D02*
X11322143Y-12129428D01*
X11322143Y-12129428D02*
X11312619Y-12110381D01*
X11312619Y-12110381D02*
X11303095Y-12072286D01*
X11303095Y-12072286D02*
X11303095Y-12024667D01*
X11303095Y-12024667D02*
X11312619Y-11986571D01*
X11312619Y-11986571D02*
X11322143Y-11967524D01*
X11322143Y-11967524D02*
X11331667Y-11958000D01*
X11331667Y-11958000D02*
X11350714Y-11948476D01*
X11503095Y-12129428D02*
X11512619Y-12138952D01*
X11512619Y-12138952D02*
X11503095Y-12148476D01*
X11503095Y-12148476D02*
X11493571Y-12138952D01*
X11493571Y-12138952D02*
X11503095Y-12129428D01*
X11503095Y-12129428D02*
X11503095Y-12148476D01*
X11636429Y-11948476D02*
X11655476Y-11948476D01*
X11655476Y-11948476D02*
X11674524Y-11958000D01*
X11674524Y-11958000D02*
X11684048Y-11967524D01*
X11684048Y-11967524D02*
X11693571Y-11986571D01*
X11693571Y-11986571D02*
X11703095Y-12024667D01*
X11703095Y-12024667D02*
X11703095Y-12072286D01*
X11703095Y-12072286D02*
X11693571Y-12110381D01*
X11693571Y-12110381D02*
X11684048Y-12129428D01*
X11684048Y-12129428D02*
X11674524Y-12138952D01*
X11674524Y-12138952D02*
X11655476Y-12148476D01*
X11655476Y-12148476D02*
X11636429Y-12148476D01*
X11636429Y-12148476D02*
X11617381Y-12138952D01*
X11617381Y-12138952D02*
X11607857Y-12129428D01*
X11607857Y-12129428D02*
X11598333Y-12110381D01*
X11598333Y-12110381D02*
X11588810Y-12072286D01*
X11588810Y-12072286D02*
X11588810Y-12024667D01*
X11588810Y-12024667D02*
X11598333Y-11986571D01*
X11598333Y-11986571D02*
X11607857Y-11967524D01*
X11607857Y-11967524D02*
X11617381Y-11958000D01*
X11617381Y-11958000D02*
X11636429Y-11948476D01*
X11874524Y-12015143D02*
X11874524Y-12148476D01*
X11826905Y-11938952D02*
X11779286Y-12081809D01*
X11779286Y-12081809D02*
X11903095Y-12081809D01*
X11960238Y-11948476D02*
X12084048Y-11948476D01*
X12084048Y-11948476D02*
X12017381Y-12024667D01*
X12017381Y-12024667D02*
X12045952Y-12024667D01*
X12045952Y-12024667D02*
X12065000Y-12034190D01*
X12065000Y-12034190D02*
X12074524Y-12043714D01*
X12074524Y-12043714D02*
X12084048Y-12062762D01*
X12084048Y-12062762D02*
X12084048Y-12110381D01*
X12084048Y-12110381D02*
X12074524Y-12129428D01*
X12074524Y-12129428D02*
X12065000Y-12138952D01*
X12065000Y-12138952D02*
X12045952Y-12148476D01*
X12045952Y-12148476D02*
X11988810Y-12148476D01*
X11988810Y-12148476D02*
X11969762Y-12138952D01*
X11969762Y-12138952D02*
X11960238Y-12129428D01*
X12150714Y-11948476D02*
X12274524Y-11948476D01*
X12274524Y-11948476D02*
X12207857Y-12024667D01*
X12207857Y-12024667D02*
X12236429Y-12024667D01*
X12236429Y-12024667D02*
X12255476Y-12034190D01*
X12255476Y-12034190D02*
X12265000Y-12043714D01*
X12265000Y-12043714D02*
X12274524Y-12062762D01*
X12274524Y-12062762D02*
X12274524Y-12110381D01*
X12274524Y-12110381D02*
X12265000Y-12129428D01*
X12265000Y-12129428D02*
X12255476Y-12138952D01*
X12255476Y-12138952D02*
X12236429Y-12148476D01*
X12236429Y-12148476D02*
X12179286Y-12148476D01*
X12179286Y-12148476D02*
X12160238Y-12138952D01*
X12160238Y-12138952D02*
X12150714Y-12129428D01*
X12350714Y-11948476D02*
X12350714Y-11986571D01*
X12426905Y-11948476D02*
X12426905Y-11986571D01*
X12689762Y-12224667D02*
X12680238Y-12215143D01*
X12680238Y-12215143D02*
X12661191Y-12186571D01*
X12661191Y-12186571D02*
X12651667Y-12167524D01*
X12651667Y-12167524D02*
X12642143Y-12138952D01*
X12642143Y-12138952D02*
X12632619Y-12091333D01*
X12632619Y-12091333D02*
X12632619Y-12053238D01*
X12632619Y-12053238D02*
X12642143Y-12005619D01*
X12642143Y-12005619D02*
X12651667Y-11977048D01*
X12651667Y-11977048D02*
X12661191Y-11958000D01*
X12661191Y-11958000D02*
X12680238Y-11929428D01*
X12680238Y-11929428D02*
X12689762Y-11919905D01*
X12756429Y-11967524D02*
X12765952Y-11958000D01*
X12765952Y-11958000D02*
X12785000Y-11948476D01*
X12785000Y-11948476D02*
X12832619Y-11948476D01*
X12832619Y-11948476D02*
X12851667Y-11958000D01*
X12851667Y-11958000D02*
X12861191Y-11967524D01*
X12861191Y-11967524D02*
X12870714Y-11986571D01*
X12870714Y-11986571D02*
X12870714Y-12005619D01*
X12870714Y-12005619D02*
X12861191Y-12034190D01*
X12861191Y-12034190D02*
X12746905Y-12148476D01*
X12746905Y-12148476D02*
X12870714Y-12148476D01*
X13076429Y-12148476D02*
X13076429Y-11948476D01*
X13162143Y-12148476D02*
X13162143Y-12043714D01*
X13162143Y-12043714D02*
X13152619Y-12024667D01*
X13152619Y-12024667D02*
X13133572Y-12015143D01*
X13133572Y-12015143D02*
X13105000Y-12015143D01*
X13105000Y-12015143D02*
X13085952Y-12024667D01*
X13085952Y-12024667D02*
X13076429Y-12034190D01*
X13285952Y-12148476D02*
X13266905Y-12138952D01*
X13266905Y-12138952D02*
X13257381Y-12129428D01*
X13257381Y-12129428D02*
X13247857Y-12110381D01*
X13247857Y-12110381D02*
X13247857Y-12053238D01*
X13247857Y-12053238D02*
X13257381Y-12034190D01*
X13257381Y-12034190D02*
X13266905Y-12024667D01*
X13266905Y-12024667D02*
X13285952Y-12015143D01*
X13285952Y-12015143D02*
X13314524Y-12015143D01*
X13314524Y-12015143D02*
X13333572Y-12024667D01*
X13333572Y-12024667D02*
X13343095Y-12034190D01*
X13343095Y-12034190D02*
X13352619Y-12053238D01*
X13352619Y-12053238D02*
X13352619Y-12110381D01*
X13352619Y-12110381D02*
X13343095Y-12129428D01*
X13343095Y-12129428D02*
X13333572Y-12138952D01*
X13333572Y-12138952D02*
X13314524Y-12148476D01*
X13314524Y-12148476D02*
X13285952Y-12148476D01*
X13466905Y-12148476D02*
X13447857Y-12138952D01*
X13447857Y-12138952D02*
X13438333Y-12119905D01*
X13438333Y-12119905D02*
X13438333Y-11948476D01*
X13619286Y-12138952D02*
X13600238Y-12148476D01*
X13600238Y-12148476D02*
X13562143Y-12148476D01*
X13562143Y-12148476D02*
X13543095Y-12138952D01*
X13543095Y-12138952D02*
X13533572Y-12119905D01*
X13533572Y-12119905D02*
X13533572Y-12043714D01*
X13533572Y-12043714D02*
X13543095Y-12024667D01*
X13543095Y-12024667D02*
X13562143Y-12015143D01*
X13562143Y-12015143D02*
X13600238Y-12015143D01*
X13600238Y-12015143D02*
X13619286Y-12024667D01*
X13619286Y-12024667D02*
X13628810Y-12043714D01*
X13628810Y-12043714D02*
X13628810Y-12062762D01*
X13628810Y-12062762D02*
X13533572Y-12081809D01*
X13705000Y-12138952D02*
X13724048Y-12148476D01*
X13724048Y-12148476D02*
X13762143Y-12148476D01*
X13762143Y-12148476D02*
X13781191Y-12138952D01*
X13781191Y-12138952D02*
X13790714Y-12119905D01*
X13790714Y-12119905D02*
X13790714Y-12110381D01*
X13790714Y-12110381D02*
X13781191Y-12091333D01*
X13781191Y-12091333D02*
X13762143Y-12081809D01*
X13762143Y-12081809D02*
X13733572Y-12081809D01*
X13733572Y-12081809D02*
X13714524Y-12072286D01*
X13714524Y-12072286D02*
X13705000Y-12053238D01*
X13705000Y-12053238D02*
X13705000Y-12043714D01*
X13705000Y-12043714D02*
X13714524Y-12024667D01*
X13714524Y-12024667D02*
X13733572Y-12015143D01*
X13733572Y-12015143D02*
X13762143Y-12015143D01*
X13762143Y-12015143D02*
X13781191Y-12024667D01*
X13857381Y-12224667D02*
X13866905Y-12215143D01*
X13866905Y-12215143D02*
X13885953Y-12186571D01*
X13885953Y-12186571D02*
X13895476Y-12167524D01*
X13895476Y-12167524D02*
X13905000Y-12138952D01*
X13905000Y-12138952D02*
X13914524Y-12091333D01*
X13914524Y-12091333D02*
X13914524Y-12053238D01*
X13914524Y-12053238D02*
X13905000Y-12005619D01*
X13905000Y-12005619D02*
X13895476Y-11977048D01*
X13895476Y-11977048D02*
X13885953Y-11958000D01*
X13885953Y-11958000D02*
X13866905Y-11929428D01*
X13866905Y-11929428D02*
X13857381Y-11919905D01*
X14186905Y-12224667D02*
X14177381Y-12215143D01*
X14177381Y-12215143D02*
X14158333Y-12186571D01*
X14158333Y-12186571D02*
X14148810Y-12167524D01*
X14148810Y-12167524D02*
X14139286Y-12138952D01*
X14139286Y-12138952D02*
X14129762Y-12091333D01*
X14129762Y-12091333D02*
X14129762Y-12053238D01*
X14129762Y-12053238D02*
X14139286Y-12005619D01*
X14139286Y-12005619D02*
X14148810Y-11977048D01*
X14148810Y-11977048D02*
X14158333Y-11958000D01*
X14158333Y-11958000D02*
X14177381Y-11929428D01*
X14177381Y-11929428D02*
X14186905Y-11919905D01*
X14263095Y-12015143D02*
X14263095Y-12148476D01*
X14263095Y-12034190D02*
X14272619Y-12024667D01*
X14272619Y-12024667D02*
X14291667Y-12015143D01*
X14291667Y-12015143D02*
X14320238Y-12015143D01*
X14320238Y-12015143D02*
X14339286Y-12024667D01*
X14339286Y-12024667D02*
X14348810Y-12043714D01*
X14348810Y-12043714D02*
X14348810Y-12148476D01*
X14472619Y-12148476D02*
X14453572Y-12138952D01*
X14453572Y-12138952D02*
X14444048Y-12129428D01*
X14444048Y-12129428D02*
X14434524Y-12110381D01*
X14434524Y-12110381D02*
X14434524Y-12053238D01*
X14434524Y-12053238D02*
X14444048Y-12034190D01*
X14444048Y-12034190D02*
X14453572Y-12024667D01*
X14453572Y-12024667D02*
X14472619Y-12015143D01*
X14472619Y-12015143D02*
X14501191Y-12015143D01*
X14501191Y-12015143D02*
X14520238Y-12024667D01*
X14520238Y-12024667D02*
X14529762Y-12034190D01*
X14529762Y-12034190D02*
X14539286Y-12053238D01*
X14539286Y-12053238D02*
X14539286Y-12110381D01*
X14539286Y-12110381D02*
X14529762Y-12129428D01*
X14529762Y-12129428D02*
X14520238Y-12138952D01*
X14520238Y-12138952D02*
X14501191Y-12148476D01*
X14501191Y-12148476D02*
X14472619Y-12148476D01*
X14596429Y-12015143D02*
X14672619Y-12015143D01*
X14625000Y-11948476D02*
X14625000Y-12119905D01*
X14625000Y-12119905D02*
X14634524Y-12138952D01*
X14634524Y-12138952D02*
X14653572Y-12148476D01*
X14653572Y-12148476D02*
X14672619Y-12148476D01*
X14859286Y-12015143D02*
X14859286Y-12215143D01*
X14859286Y-12024667D02*
X14878333Y-12015143D01*
X14878333Y-12015143D02*
X14916429Y-12015143D01*
X14916429Y-12015143D02*
X14935476Y-12024667D01*
X14935476Y-12024667D02*
X14945000Y-12034190D01*
X14945000Y-12034190D02*
X14954524Y-12053238D01*
X14954524Y-12053238D02*
X14954524Y-12110381D01*
X14954524Y-12110381D02*
X14945000Y-12129428D01*
X14945000Y-12129428D02*
X14935476Y-12138952D01*
X14935476Y-12138952D02*
X14916429Y-12148476D01*
X14916429Y-12148476D02*
X14878333Y-12148476D01*
X14878333Y-12148476D02*
X14859286Y-12138952D01*
X15068810Y-12148476D02*
X15049762Y-12138952D01*
X15049762Y-12138952D02*
X15040238Y-12119905D01*
X15040238Y-12119905D02*
X15040238Y-11948476D01*
X15230714Y-12148476D02*
X15230714Y-12043714D01*
X15230714Y-12043714D02*
X15221191Y-12024667D01*
X15221191Y-12024667D02*
X15202143Y-12015143D01*
X15202143Y-12015143D02*
X15164048Y-12015143D01*
X15164048Y-12015143D02*
X15145000Y-12024667D01*
X15230714Y-12138952D02*
X15211667Y-12148476D01*
X15211667Y-12148476D02*
X15164048Y-12148476D01*
X15164048Y-12148476D02*
X15145000Y-12138952D01*
X15145000Y-12138952D02*
X15135476Y-12119905D01*
X15135476Y-12119905D02*
X15135476Y-12100857D01*
X15135476Y-12100857D02*
X15145000Y-12081809D01*
X15145000Y-12081809D02*
X15164048Y-12072286D01*
X15164048Y-12072286D02*
X15211667Y-12072286D01*
X15211667Y-12072286D02*
X15230714Y-12062762D01*
X15297381Y-12015143D02*
X15373572Y-12015143D01*
X15325953Y-11948476D02*
X15325953Y-12119905D01*
X15325953Y-12119905D02*
X15335476Y-12138952D01*
X15335476Y-12138952D02*
X15354524Y-12148476D01*
X15354524Y-12148476D02*
X15373572Y-12148476D01*
X15516429Y-12138952D02*
X15497381Y-12148476D01*
X15497381Y-12148476D02*
X15459286Y-12148476D01*
X15459286Y-12148476D02*
X15440238Y-12138952D01*
X15440238Y-12138952D02*
X15430714Y-12119905D01*
X15430714Y-12119905D02*
X15430714Y-12043714D01*
X15430714Y-12043714D02*
X15440238Y-12024667D01*
X15440238Y-12024667D02*
X15459286Y-12015143D01*
X15459286Y-12015143D02*
X15497381Y-12015143D01*
X15497381Y-12015143D02*
X15516429Y-12024667D01*
X15516429Y-12024667D02*
X15525953Y-12043714D01*
X15525953Y-12043714D02*
X15525953Y-12062762D01*
X15525953Y-12062762D02*
X15430714Y-12081809D01*
X15697381Y-12148476D02*
X15697381Y-11948476D01*
X15697381Y-12138952D02*
X15678334Y-12148476D01*
X15678334Y-12148476D02*
X15640238Y-12148476D01*
X15640238Y-12148476D02*
X15621191Y-12138952D01*
X15621191Y-12138952D02*
X15611667Y-12129428D01*
X15611667Y-12129428D02*
X15602143Y-12110381D01*
X15602143Y-12110381D02*
X15602143Y-12053238D01*
X15602143Y-12053238D02*
X15611667Y-12034190D01*
X15611667Y-12034190D02*
X15621191Y-12024667D01*
X15621191Y-12024667D02*
X15640238Y-12015143D01*
X15640238Y-12015143D02*
X15678334Y-12015143D01*
X15678334Y-12015143D02*
X15697381Y-12024667D01*
X15773572Y-12224667D02*
X15783095Y-12215143D01*
X15783095Y-12215143D02*
X15802143Y-12186571D01*
X15802143Y-12186571D02*
X15811667Y-12167524D01*
X15811667Y-12167524D02*
X15821191Y-12138952D01*
X15821191Y-12138952D02*
X15830714Y-12091333D01*
X15830714Y-12091333D02*
X15830714Y-12053238D01*
X15830714Y-12053238D02*
X15821191Y-12005619D01*
X15821191Y-12005619D02*
X15811667Y-11977048D01*
X15811667Y-11977048D02*
X15802143Y-11958000D01*
X15802143Y-11958000D02*
X15783095Y-11929428D01*
X15783095Y-11929428D02*
X15773572Y-11919905D01*
M02*
