M48
; DRILL file {KiCad (7.0.0)} date Thu Feb 23 15:33:34 2023
; FORMAT={-:-/ absolute / inch / decimal}
; #@! TF.CreationDate,2023-02-23T15:33:34+08:00
; #@! TF.GenerationSoftware,Kicad,Pcbnew,(7.0.0)
; #@! TF.FileFunction,Plated,1,2,PTH
FMAT,2
INCH
; #@! TA.AperFunction,Plated,PTH,ViaDrill
T1C0.0157
; #@! TA.AperFunction,Plated,PTH,ComponentDrill
T2C0.0354
; #@! TA.AperFunction,Plated,PTH,ComponentDrill
T3C0.0394
%
G90
G05
T1
X3.8307Y-4.4606
X3.8622Y-3.9331
X3.9119Y-4.3878
X3.9291Y-3.9469
X3.9449Y-4.4409
X3.9454Y-4.3322
X3.9528Y-4.0787
X3.9528Y-4.1791
X3.9916Y-4.1854
X3.9921Y-4.2343
X4.0118Y-4.1516
X4.0551Y-3.9744
X4.0906Y-4.4
X4.1201Y-4.0472
X4.1201Y-4.124
X4.19Y-4.1211
X4.1929Y-4.0453
X4.2028Y-3.939
X4.2047Y-4.4291
X4.25Y-4.1969
X4.2717Y-4.2795
X4.3248Y-4.1594
X4.3504Y-4.2402
X4.3504Y-4.3898
X4.3602Y-3.939
T3
X4.022Y-3.8681
X4.122Y-3.8681
X4.222Y-3.8681
X4.322Y-3.8681
X4.422Y-3.8681
T2
G00X3.7874Y-3.9213
M15
G01X3.7244Y-3.9213
M16
G05
G00X3.7874Y-4.3701
M15
G01X3.7244Y-4.3701
M16
G05
T0
M30
